<svg width="5" height="23" viewBox="0 0 5 23" fill="none" xmlns="http://www.w3.org/2000/svg">
<path d="M2.5 13.785C3.88071 13.785 5 12.6657 5 11.285C5 9.90432 3.88071 8.78503 2.5 8.78503C1.11929 8.78503 0 9.90432 0 11.285C0 12.6657 1.11929 13.785 2.5 13.785Z" fill="#717579"/>
<path d="M2.5 5C3.88071 5 5 3.88071 5 2.5C5 1.11929 3.88071 0 2.5 0C1.11929 0 0 1.11929 0 2.5C0 3.88071 1.11929 5 2.5 5Z" fill="#717579"/>
<path d="M2.5 22.5699C3.88071 22.5699 5 21.4507 5 20.0699C5 18.6892 3.88071 17.5699 2.5 17.5699C1.11929 17.5699 0 18.6892 0 20.0699C0 21.4507 1.11929 22.5699 2.5 22.5699Z" fill="#717579"/>
</svg>
