<svg width="1440" height="1024" viewBox="0 0 1440 1024" fill="none" xmlns="http://www.w3.org/2000/svg">
<rect width="1440" height="1024" fill="#09293E"/>
<circle cx="330" cy="479" r="74" stroke="#2E495B" stroke-width="2" stroke-dasharray="8 8"/>
<g opacity="0.6">
<path d="M315.097 456.297C315.77 437.237 343.23 437.231 343.905 456.297C343.228 475.363 315.769 475.356 315.097 456.297ZM304.918 479.126C308.162 479.097 311.148 477.349 312.762 474.534C314.376 471.719 314.376 468.259 312.762 465.444C311.148 462.63 308.162 460.882 304.917 460.852C301.672 460.882 298.687 462.63 297.072 465.444C295.459 468.259 295.459 471.719 297.072 474.534C298.687 477.35 301.673 479.097 304.918 479.126ZM352.33 479.126C355.575 479.097 358.56 477.349 360.174 474.534C361.788 471.719 361.788 468.259 360.174 465.444C358.56 462.63 355.575 460.882 352.329 460.852C349.085 460.882 346.099 462.63 344.485 465.444C342.871 468.259 342.871 471.719 344.485 474.534C346.099 477.35 349.085 479.097 352.33 479.126ZM353.206 480.76C351.276 480.767 349.365 481.146 347.579 481.877C342.709 477.228 336.234 474.635 329.502 474.635C322.769 474.635 316.295 477.228 311.424 481.876C298.462 476.943 287.027 489.37 287 504.751V504.751C287 505.918 287.946 506.863 289.112 506.863C290.279 506.863 291.225 505.918 291.225 504.751C291.318 492.956 298.709 483.346 308.157 485.26C301.708 493.257 298.261 503.259 298.414 513.53C298.414 514.09 298.637 514.628 299.033 515.024C299.429 515.42 299.966 515.643 300.527 515.643H358.474C359.035 515.643 359.573 515.42 359.969 515.024C360.365 514.628 360.588 514.09 360.587 513.53C360.74 503.258 357.293 493.256 350.844 485.258C360.291 483.343 367.682 492.955 367.775 504.749C367.775 505.917 368.721 506.862 369.887 506.862C371.054 506.862 372 505.917 372 504.75C372 491.521 363.569 480.759 353.206 480.759L353.206 480.76Z" fill="#2E495B"/>
</g>
<circle cx="167" cy="818" r="104" stroke="#2E495B" stroke-width="2" stroke-dasharray="8 8"/>
<path d="M222.1 859H221.1V856H218.1V811H220.1V808.5H222.6V803H224.2L167 768L110 803H112.6V808.5H115.1V811H117.1V856H114.1V859H112.1V863H110.1V868H224.1V863H222.1V859ZM210.1 811V856H207.1V859H201.1V856H198.1V811H200.1V808.5H208.1V811H210.1ZM183.1 857V855H181.1V818H153.1V855H151.1V857H149.1V859H148.1V856H145.1V811H147.1V808.5H188.1V811H190.1V856H187.1V859H185.1V857H183.1ZM125.1 856V811H127.1V808.5H135.1V811H137.1V856H134.1V859H128.1V856H125.1Z" fill="#2E495B"/>
<circle cx="1239.5" cy="524.5" r="82.5" stroke="#2E495B" stroke-width="2" stroke-dasharray="8 8"/>
<path d="M1283.32 557.105H1282.52V554.719H1280.14V518.933H1281.73V516.945H1283.72V512.571H1284.99L1239.5 484.738L1194.17 512.571H1196.24V516.945H1198.23V518.933H1199.82V554.719H1197.43V557.105H1195.84V560.286H1194.25V564.262H1284.91V560.286H1283.32V557.105ZM1273.77 518.933V554.719H1271.39V557.105H1266.62V554.719H1264.23V518.933H1265.82V516.945H1272.18V518.933H1273.77ZM1252.3 555.514V553.924H1250.71V524.5H1228.45V553.924H1226.86V555.514H1225.27V557.105H1224.47V554.719H1222.08V518.933H1223.67V516.945H1256.28V518.933H1257.87V554.719H1255.48V557.105H1253.89V555.514H1252.3ZM1206.18 554.719V518.933H1207.77V516.945H1214.13V518.933H1215.72V554.719H1213.34V557.105H1208.57V554.719H1206.18Z" fill="#2E495B"/>
<circle cx="1156" cy="809" r="89" stroke="#2E495B" stroke-width="2" stroke-dasharray="8 8"/>
<path d="M1206.32 806.491L1193.85 783.377C1194.22 783.034 1194.44 782.543 1194.44 781.992C1194.44 780.943 1193.59 780.082 1192.54 780.082C1191.87 780.082 1191.26 780.452 1190.93 780.99L1161.51 777.695C1161.12 776.862 1160.54 776.129 1159.83 775.578V764H1152.17V775.591C1151.46 776.142 1150.9 776.862 1150.5 777.695L1121.08 780.99C1120.75 780.452 1120.15 780.082 1119.47 780.082C1118.42 780.082 1117.57 780.943 1117.57 781.992C1117.57 782.543 1117.8 783.027 1118.16 783.377L1105.7 806.491L1105 806.505C1105.02 814.472 1111.54 821.02 1119.48 821.02C1127.41 821.02 1133.94 814.445 1133.94 806.458H1133.09L1120.78 783.39C1120.88 783.282 1120.98 783.175 1121.06 783.047L1150.16 782.14C1150.52 783.336 1151.24 784.399 1152.18 785.165V839.799H1127.89V845.964H1124.51V855H1187.51V845.957H1184.13V839.792H1159.83V785.158C1160.78 784.392 1161.5 783.336 1161.85 782.133L1190.95 783.04C1191.04 783.168 1191.13 783.276 1191.24 783.383L1178.92 806.451H1178.07C1178.07 814.438 1184.59 821.014 1192.53 821.014C1200.47 821.014 1206.99 814.458 1207 806.498L1206.32 806.491ZM1131.97 806.458H1119.47L1106.81 806.491L1119.04 783.854C1119.18 783.888 1119.33 783.908 1119.48 783.908C1119.63 783.908 1119.77 783.888 1119.91 783.854L1131.97 806.458ZM1156.01 784.109C1153.97 784.109 1152.33 782.449 1152.33 780.405C1152.33 778.354 1153.97 776.694 1156.01 776.694C1158.05 776.694 1159.69 778.354 1159.69 780.405C1159.69 782.449 1158.05 784.109 1156.01 784.109ZM1192.54 806.458H1180.05L1192.11 783.854C1192.25 783.888 1192.39 783.908 1192.54 783.908C1192.69 783.908 1192.84 783.888 1192.98 783.854L1205.21 806.491L1192.54 806.458Z" fill="#2E495B"/>
<path d="M253.803 206.931C254.331 209.887 254.689 212.898 254.867 215.955L253.769 216.02C253.856 217.502 253.9 218.996 253.9 220.5C253.9 222.004 253.856 223.498 253.769 224.98L254.867 225.045C254.689 228.102 254.331 231.113 253.803 234.069L252.72 233.875C252.192 236.837 251.491 239.742 250.627 242.581L251.68 242.901C250.794 245.813 249.74 248.656 248.528 251.419L247.521 250.977C246.318 253.72 244.958 256.384 243.451 258.957L244.4 259.513C242.868 262.129 241.186 264.654 239.367 267.076L238.487 266.415C236.693 268.802 234.763 271.088 232.707 273.263L233.507 274.019C231.43 276.216 229.226 278.301 226.908 280.262L226.198 279.423C223.922 281.348 221.535 283.152 219.045 284.827L219.659 285.739C217.155 287.423 214.549 288.977 211.853 290.39L211.342 289.416C208.708 290.796 205.987 292.04 203.187 293.138L203.589 294.162C200.788 295.261 197.91 296.216 194.965 297.017L194.676 295.956C191.815 296.734 188.889 297.366 185.909 297.842L186.082 298.928C183.12 299.401 180.104 299.721 177.045 299.881L176.987 298.783C175.502 298.861 174.006 298.9 172.5 298.9C170.994 298.9 169.498 298.861 168.013 298.783L167.955 299.881C164.896 299.721 161.88 299.401 158.918 298.928L159.091 297.842C156.111 297.366 153.185 296.734 150.324 295.956L150.035 297.017C147.09 296.216 144.212 295.261 141.411 294.162L141.813 293.138C139.013 292.04 136.292 290.796 133.658 289.416L133.147 290.39C130.451 288.977 127.845 287.423 125.341 285.739L125.955 284.827C123.465 283.152 121.078 281.348 118.802 279.423L118.092 280.262C115.774 278.301 113.57 276.216 111.493 274.019L112.293 273.263C110.237 271.088 108.307 268.802 106.513 266.415L105.633 267.076C103.814 264.654 102.132 262.129 100.6 259.513L101.549 258.957C100.042 256.384 98.682 253.72 97.4793 250.977L96.4719 251.419C95.2603 248.656 94.2061 245.813 93.3203 242.901L94.3727 242.581C93.5094 239.742 92.8083 236.837 92.2797 233.875L91.1968 234.069C90.6694 231.113 90.3113 228.102 90.1325 225.045L91.2307 224.98C91.1439 223.498 91.1 222.004 91.1 220.5C91.1 218.996 91.1439 217.502 91.2307 216.02L90.1325 215.955C90.3113 212.898 90.6694 209.887 91.1968 206.931L92.2797 207.125C92.8083 204.163 93.5094 201.258 94.3727 198.419L93.3203 198.099C94.2061 195.187 95.2603 192.344 96.4719 189.581L97.4793 190.023C98.682 187.28 100.042 184.616 101.549 182.043L100.6 181.487C102.132 178.871 103.814 176.346 105.633 173.924L106.513 174.585C108.307 172.198 110.237 169.912 112.293 167.737L111.493 166.981C113.57 164.784 115.774 162.699 118.092 160.738L118.802 161.577C121.078 159.652 123.465 157.848 125.955 156.173L125.341 155.261C127.845 153.577 130.451 152.023 133.147 150.61L133.658 151.584C136.292 150.204 139.013 148.96 141.813 147.862L141.411 146.838C144.212 145.739 147.09 144.784 150.035 143.983L150.324 145.044C153.185 144.266 156.111 143.634 159.091 143.158L158.918 142.072C161.88 141.599 164.896 141.279 167.955 141.119L168.013 142.217C169.498 142.139 170.994 142.1 172.5 142.1C174.006 142.1 175.502 142.139 176.987 142.217L177.045 141.119C180.104 141.279 183.12 141.599 186.082 142.072L185.909 143.158C188.889 143.634 191.815 144.266 194.676 145.044L194.965 143.983C197.91 144.784 200.788 145.739 203.589 146.838L203.187 147.862C205.987 148.96 208.708 150.204 211.342 151.584L211.853 150.61C214.549 152.023 217.155 153.577 219.659 155.261L219.045 156.173C221.535 157.848 223.922 159.652 226.198 161.577L226.908 160.738C229.226 162.699 231.43 164.784 233.507 166.981L232.707 167.737C234.763 169.912 236.693 172.198 238.487 174.585L239.367 173.924C241.186 176.346 242.868 178.871 244.4 181.487L243.451 182.043C244.958 184.616 246.318 187.28 247.521 190.023L248.528 189.581C249.74 192.344 250.794 195.187 251.68 198.099L250.627 198.419C251.491 201.258 252.192 204.163 252.72 207.125L253.803 206.931Z" stroke="#2E495B" stroke-width="2.2" stroke-dasharray="8.8 8.8"/>
<path d="M209.731 235.083C208.224 232.077 204.725 226.986 201.028 227.004C191.248 227.056 181.468 227.021 171.688 227.021V227.039C163.774 227.039 142.24 227.039 141.702 227.039C141.11 227.039 140.554 227.004 140.033 227.403C137.341 229.523 135.098 232.008 133.681 235.118C133.268 236.038 133.573 236.299 134.488 236.438C137.754 236.942 140.948 237.828 144.125 238.714C145.147 238.992 145.722 239.513 146.027 240.521C155.125 270.509 185.954 273.515 196.398 240.521C196.757 239.409 197.313 238.801 198.552 238.575C202.015 237.932 205.442 237.133 208.906 236.508C209.965 236.316 210.288 236.16 209.731 235.083ZM175.851 260.797C162.249 263.42 153.797 253.169 149.167 240.417C171.742 247.697 177.161 246.602 192.917 240.295C192.432 245.351 185.111 259.007 175.851 260.797Z" fill="#2E495B"/>
<path d="M199.073 225.041C202.213 225.041 202.159 225.041 202.231 221.931C202.285 219.863 206.843 220.523 144.771 220.506C141.846 220.506 141.882 220.506 141.828 223.373C141.774 225.77 137.396 225.006 199.073 225.041Z" fill="#2E495B"/>
<path d="M172.083 209.126C176.121 209.23 179.548 206.05 179.602 202.124C179.746 192.568 164.762 192.307 164.977 202.037C164.905 205.755 168.189 209.021 172.083 209.126ZM177.341 202.054C177.305 204.799 175.098 206.798 172.101 206.78C169.284 206.763 167.274 204.695 167.31 201.846C167.399 195.348 177.431 195.661 177.341 202.054Z" fill="#2E495B"/>
<path d="M201.818 216.197C197.906 188.572 187.587 181.414 176.192 179.068C175.223 178.877 173.913 179.138 174.021 177.487C174.057 176.966 172.029 177.175 171.455 177.192C170.486 177.209 169.337 176.879 169.391 178.512C169.409 179.051 168.763 178.912 168.35 178.982C152.738 181.953 148.862 192.62 146.188 199.865C144.143 205.443 142.851 211.211 142.133 217.083C141.792 219.828 138.005 218.96 199.413 218.942C202.194 218.96 202.212 218.925 201.818 216.197ZM182.401 212.062C176.031 210.412 174.29 211.176 171.778 216.51C168.225 210.568 168.225 210.568 160.921 211.854C164.654 204.365 159.88 202.975 157.404 201.724C160.49 200.439 165.587 200.387 161.8 191.752C165.03 193.037 164.402 192.933 166.753 193.281C164.564 188.92 164.923 185.028 169.624 186.001V184.628H170.306V183.864H172.047V184.611H172.765V186.001C177.215 185.097 177.825 188.624 175.726 193.02C176.067 192.933 177.125 193.263 177.807 193.124C179.01 192.881 180.176 192.533 181.486 191.925C181.145 194.167 179.566 196.095 180.499 198.319C181.486 200.682 183.944 200.838 186.421 201.69C182.868 203.323 179.135 203.966 182.401 212.062Z" fill="#2E495B"/>
<path d="M172.478 191.23C172.514 190.553 172.873 190.257 173.339 189.806C173.806 190.275 174.165 190.553 174.201 191.23C174.416 191.335 174.541 191.474 174.631 191.595C175.977 188.277 175.546 186.522 172.011 187.929V191.665C172.065 191.526 172.209 191.352 172.478 191.23Z" fill="#2E495B"/>
<path d="M168.188 191.23C168.224 190.553 168.583 190.257 169.05 189.806C169.516 190.275 169.875 190.553 169.911 191.23C170.162 191.352 170.306 191.526 170.378 191.682V187.929C166.896 186.539 166.394 188.207 167.758 191.595C167.847 191.456 167.973 191.335 168.188 191.23Z" fill="#2E495B"/>
<circle cx="1177.5" cy="204.5" r="84.5" stroke="#2E495B" stroke-width="2.52174" stroke-dasharray="10.09 10.09"/>
<g opacity="0.6">
<path d="M1147.64 221.864H1169.02C1169.98 221.864 1170.76 222.643 1170.76 223.603V244.365C1170.76 245.326 1169.98 246.105 1169.02 246.105C1168.5 246.105 1168.04 245.879 1167.72 245.52L1146.43 224.847C1145.75 224.179 1145.73 223.081 1146.4 222.394C1146.74 222.044 1147.19 221.869 1147.64 221.869V221.864L1147.64 221.864Z" fill="#2E495B"/>
<path fill-rule="evenodd" clip-rule="evenodd" d="M1147.64 162.618H1208.52H1210.26L1210.26 164.357V244.365V246.104H1208.52H1172.03C1172.33 245.593 1172.5 244.999 1172.5 244.365V223.603C1172.5 221.682 1170.94 220.124 1169.02 220.124H1145.9L1145.9 164.357V162.617H1147.64L1147.64 162.618ZM1154.6 183.489H1201.56V186.968H1154.6V183.489ZM1154.6 176.532H1201.56V180.011H1154.6V176.532ZM1154.6 192.186H1201.56V195.664H1154.6V192.186ZM1154.6 199.143H1201.56V202.621H1154.6V199.143ZM1154.6 206.1H1201.56V209.578H1154.6V206.1ZM1154.6 213.057H1201.56V216.536H1154.6V213.057Z" fill="#2E495B"/>
</g>
</svg>
