<svg width="14" height="15" viewBox="0 0 14 15" fill="none" xmlns="http://www.w3.org/2000/svg">
<path d="M11.9 2.89114H11.2V1.49114C11.2 1.30549 11.1263 1.12744 10.995 0.996163C10.8637 0.864887 10.6857 0.791138 10.5 0.791138C10.3143 0.791138 10.1363 0.864887 10.005 0.996163C9.87375 1.12744 9.8 1.30549 9.8 1.49114V2.89114H4.2V1.49114C4.2 1.30549 4.12625 1.12744 3.99497 0.996163C3.8637 0.864887 3.68565 0.791138 3.5 0.791138C3.31435 0.791138 3.1363 0.864887 3.00503 0.996163C2.87375 1.12744 2.8 1.30549 2.8 1.49114V2.89114H2.1C1.54305 2.89114 1.0089 3.11239 0.615076 3.50621C0.221249 3.90004 0 4.43418 0 4.99114V5.69114H14V4.99114C14 4.43418 13.7788 3.90004 13.3849 3.50621C12.9911 3.11239 12.457 2.89114 11.9 2.89114Z" fill="#717579"/>
<path d="M0 12.6912C0 13.2481 0.221249 13.7823 0.615076 14.1761C1.0089 14.5699 1.54305 14.7912 2.1 14.7912H11.9C12.457 14.7912 12.9911 14.5699 13.3849 14.1761C13.7788 13.7823 14 13.2481 14 12.6912V7.09119H0V12.6912Z" fill="#717579"/>
</svg>
