<svg width="100" height="89" viewBox="0 0 100 89" fill="none" xmlns="http://www.w3.org/2000/svg">
<path d="M99.3381 41.3742L87.1093 18.8672C87.4697 18.5333 87.6859 18.0554 87.6859 17.5186C87.6859 16.4973 86.8537 15.6593 85.8248 15.6593C85.1628 15.6593 84.573 16.0194 84.2453 16.5431L55.4034 13.3353C55.0167 12.5236 54.4466 11.81 53.7519 11.2732V0H46.2481V11.2862C45.5534 11.8231 44.9964 12.5236 44.6097 13.3353L15.7677 16.5431C15.4401 16.0194 14.8503 15.6593 14.1884 15.6593C13.1595 15.6593 12.3271 16.4973 12.3271 17.5186C12.3271 18.0554 12.55 18.5267 12.9039 18.8672L0.68159 41.3742L0 41.3873C0.0196605 49.145 6.41591 55.5213 14.1949 55.5213C21.9739 55.5213 28.3767 49.1188 28.3767 41.3415H27.5379L15.4663 18.8803C15.5712 18.7755 15.6695 18.6708 15.7481 18.5464L44.2755 17.6626C44.6228 18.8279 45.3306 19.8623 46.2547 20.6086V73.8058H22.4392V79.809H19.1231V88.6076H80.8899V79.8025H77.5739V73.7993H53.7519V20.602C54.689 19.8557 55.3902 18.8279 55.7376 17.6561L84.265 18.5398C84.3502 18.6642 84.442 18.769 84.5468 18.8737L72.4753 41.3349H71.6364C71.6364 49.1122 78.0326 55.5147 85.8182 55.5147C93.5972 55.5147 99.9934 49.1319 100 41.3808L99.3381 41.3742ZM26.4369 41.3415H14.1884L1.77602 41.3742L13.7624 19.332C13.9 19.3647 14.0442 19.3843 14.1949 19.3843C14.3391 19.3843 14.4767 19.3647 14.6143 19.332L26.4369 41.3415ZM50.0098 19.5808C48.011 19.5808 46.3988 17.9638 46.3988 15.9736C46.3988 13.9769 48.011 12.3599 50.0098 12.3599C52.0086 12.3599 53.6208 13.9769 53.6208 15.9736C53.6208 17.9638 52.0086 19.5808 50.0098 19.5808ZM85.8248 41.3415H73.5762L85.4053 19.332C85.5429 19.3647 85.6806 19.3843 85.8248 19.3843C85.9689 19.3843 86.1196 19.3647 86.2573 19.332L98.2437 41.3742L85.8248 41.3415Z" fill="#0F3F62"/>
</svg>
