<svg width="173" height="147" viewBox="0 0 173 147" fill="none" xmlns="http://www.w3.org/2000/svg">
<path fill-rule="evenodd" clip-rule="evenodd" d="M87.1565 4.50136C106.651 6.95289 124.647 12.6897 138.742 26.4175C156.101 43.3257 178.099 63.612 171.943 87.083C165.849 110.317 135.148 112.25 113.52 122.579C92.1071 132.805 72.3806 152.782 49.835 145.399C25.0536 137.284 10.3201 112.075 3.99468 86.7111C-2.51234 60.6192 -2.77606 29.9032 16.3231 11.0227C34.089 -6.53982 62.4047 1.38869 87.1565 4.50136Z" fill="#ECF3FE"/>
<g style="mix-blend-mode:multiply" opacity="0.2">
<path d="M73.2196 63.8779L70.0038 71.4817L58.4201 98.8927L57.7021 100.588C57.3515 101.411 57.4444 102.215 57.8766 102.75C57.9187 102.805 57.9647 102.857 58.0142 102.905C58.256 103.139 58.5608 103.297 58.8911 103.359L108.563 113.745C109.767 113.991 110.838 113.975 111.383 112.691L129.865 69.2724C130.207 68.4698 129.874 67.6939 129.122 67.5402L112.664 64.1685C112.157 64.0647 111.566 64.27 111.125 64.7002L107.4 68.3542L76.3871 62.0025C75.1823 61.7564 73.7651 62.5967 73.2196 63.8779Z" fill="#003889"/>
</g>
<path d="M63.0303 58.4366L61.3578 67.0577L55.3369 98.1349L54.9628 100.056C54.7792 100.99 55.0353 101.891 55.5757 102.481C55.8742 102.818 56.2731 103.049 56.713 103.14L108.485 113.597C109.74 113.845 110.805 113.8 111.091 112.344L120.762 63.1146C120.94 62.2047 120.45 61.3415 119.667 61.1877L102.527 57.8023C102 57.6981 101.449 57.9431 101.097 58.437L98.1116 62.6329L65.8151 56.2537C64.5621 56.0048 63.3154 56.9852 63.0303 58.4366Z" fill="#E59D29"/>
<path d="M120.616 42.8047C112.11 61.1043 110.652 81.6792 117.95 100.635C118.28 101.463 117.989 102.058 117.276 101.975C104.633 100.491 91.9902 99.0074 79.3466 97.5241C78.634 97.4412 77.736 96.836 77.3568 96.1686C76.6234 94.8316 75.9383 93.4783 75.3014 92.1088C69.2986 79.1785 67.7088 64.8283 71.8775 50.9362C72.0869 50.2755 72.9716 49.6243 73.834 49.4737C81.0537 48.2229 88.2733 46.9712 95.4927 45.7186C103.604 44.3134 111.716 42.9073 119.827 41.5003C120.69 41.3524 121.033 41.9329 120.616 42.8047Z" fill="white"/>
<path d="M102.481 55.8588C102.33 54.8332 101.964 53.9842 101.363 53.3157C100.763 52.6472 99.9393 52.1969 98.8926 51.9476C97.6667 51.6547 96.3929 51.7372 95.1843 51.8729C94.4319 51.9606 93.6873 52.1061 92.9572 52.3082C92.0079 52.5713 91.0806 52.9086 90.1838 53.3169C88.6705 54.0015 87.2351 54.88 85.9759 55.9717C85.9575 55.9878 85.9367 56.0035 85.9222 56.0197C84.7822 57.0122 83.7935 58.1853 83.0535 59.505C82.6718 60.1829 82.3641 60.9001 82.1359 61.6442C81.9364 62.2943 81.8021 62.9627 81.7351 63.6396C81.6803 64.1674 81.6723 64.699 81.7111 65.2283C81.7654 65.9791 81.9306 66.7177 82.2013 67.4198C82.3777 67.8748 82.5999 68.3105 82.8645 68.7203C83.0892 69.0672 83.3425 69.3946 83.6218 69.6991C83.8266 69.9234 84.0446 70.1352 84.2747 70.3334C84.3069 70.3597 84.3402 70.3872 84.3724 70.4148C85.2818 71.1938 86.5947 71.8497 87.7301 72.1844C88.0575 72.2807 88.3967 72.3704 88.7473 72.4463C89.0701 72.5186 89.4014 72.5796 89.7379 72.6264C90.5883 72.741 91.4466 72.7856 92.3042 72.7597C93.4271 72.7311 94.4647 72.5941 95.4168 72.3487C96.3269 72.1181 97.2005 71.7615 98.0126 71.2893C98.7869 70.8352 99.4897 70.2681 100.098 69.6066C100.328 69.3556 100.545 69.0931 100.748 68.8202C101.024 68.4485 101.275 68.059 101.499 67.6542C101.555 67.5531 101.611 67.4517 101.665 67.3475L99.4377 67.4623C99.3483 67.5736 99.2604 67.6829 99.1698 67.7883C98.7978 68.2249 98.3802 68.6204 97.9243 68.968C97.6446 69.179 97.3507 69.3704 97.0447 69.541C96.0823 70.0777 94.8337 70.4761 93.7615 70.6047C92.4325 70.7644 91.0556 70.854 89.7093 70.6314C89.6179 70.6165 89.5238 70.6023 89.4348 70.5842C89.2654 70.5508 89.0983 70.5142 88.9344 70.4726C88.0716 70.2626 87.2995 69.9535 86.6261 69.5504C86.4693 69.4584 86.3202 69.3597 86.1759 69.2563C85.8916 69.0535 85.6244 68.8275 85.3771 68.5807C84.9986 68.2051 84.6744 67.7782 84.4139 67.3125C84.3312 67.1654 84.2535 67.0104 84.1837 66.852C83.9356 66.2885 83.7768 65.6895 83.7131 65.0769C83.663 64.5953 83.6645 64.1098 83.7178 63.6285C83.815 62.7185 84.043 61.8274 84.3947 60.9828C84.6296 60.41 84.916 59.8598 85.2504 59.339V59.3367C85.2528 59.3343 85.2528 59.3312 85.2551 59.33C85.4257 59.061 85.6124 58.8015 85.8085 58.5474C86.4703 57.6888 87.2537 56.9318 88.134 56.3004C89.0508 55.6445 90.047 55.1082 91.0987 54.7043C91.4333 54.5733 91.7756 54.4561 92.125 54.3503C92.1858 54.3319 92.2466 54.3134 92.3086 54.2976C93.039 54.0873 93.7847 53.9344 94.5388 53.8403C94.9732 53.7849 95.4103 53.7537 95.8482 53.7471C96.4886 53.7392 97.0671 53.7955 97.5816 53.9193C98.4224 54.1228 99.0788 54.4767 99.551 54.9811C100.023 55.4855 100.326 56.1161 100.46 56.873C100.494 57.0654 100.517 57.2594 100.53 57.4542C100.57 58.0514 100.52 58.6902 100.378 59.3705C100.156 60.4566 99.7411 61.4936 99.1522 62.4319C98.5577 63.3828 97.9388 64.1421 97.2733 64.7107C96.6078 65.2794 96.089 65.5735 95.7121 65.5967C95.6594 65.6008 95.6065 65.5913 95.5585 65.5691C95.5105 65.5469 95.4689 65.5129 95.4376 65.4701C95.3674 65.3785 95.3411 65.2475 95.3592 65.0769C95.3764 64.9137 95.4623 64.5782 95.6251 64.065C96.5392 61.3218 97.578 58.6568 98.7522 56.0145C98.7639 55.9894 98.7694 55.9752 98.7812 55.9512L98.6847 55.9626C97.5655 56.0869 97.0055 56.1502 95.8863 56.2772C95.6568 56.7723 95.5447 57.0205 95.3258 57.5156C94.9388 56.5989 94.0843 56.2403 92.7791 56.3752C92.3821 56.4204 91.991 56.5086 91.6129 56.6382C90.8262 56.9001 90.0415 57.3127 89.4583 57.748C88.5132 58.4558 87.49 59.5569 86.8783 60.575C86.3249 61.4952 85.8265 62.7843 85.7202 63.8783C85.683 64.2254 85.6777 64.5753 85.7041 64.9235C85.7567 65.5256 85.9183 66.0549 86.1865 66.5067C86.5987 67.2027 87.1775 67.6896 87.9026 67.9597C88.3206 68.116 88.7636 68.1946 89.2097 68.1917C89.394 68.191 89.5781 68.1779 89.7607 68.1524C89.9026 68.1324 90.0434 68.1045 90.1822 68.0687C90.9783 67.8661 91.6956 67.4355 92.3533 66.771C92.4254 67.2035 92.6164 67.5118 92.9168 67.6966C93.2172 67.8815 93.6509 67.9621 94.2149 67.9326C95.1911 67.8832 96.1425 67.6067 96.9937 67.1249C97.8749 66.6333 98.6698 65.9797 99.3894 65.163C100.115 64.3349 100.728 63.4143 101.213 62.4252C101.696 61.4587 102.056 60.4347 102.282 59.3776C102.311 59.2435 102.337 59.1102 102.36 58.9792C102.569 57.8199 102.618 56.7802 102.481 55.8588ZM94.1117 60.632C93.9742 61.4112 93.7168 62.2306 93.3395 63.0902C92.965 63.9451 92.5031 64.6651 91.9466 65.2444C91.3901 65.8236 90.7858 66.1312 90.1285 66.1713C89.9594 66.1825 89.7896 66.1692 89.6242 66.1319C89.5889 66.1237 89.5532 66.1135 89.5187 66.1021C89.2284 66.0082 88.977 65.8212 88.803 65.57C88.6768 65.3909 88.5846 65.19 88.5312 64.9774C88.4316 64.6109 88.4101 64.1641 88.4709 63.6403C88.5728 62.7882 88.8216 61.9603 89.2062 61.1936C89.5728 60.4325 90.0838 59.7504 90.7105 59.1853C90.8042 59.1015 90.8995 59.0233 90.9944 58.9521C91.5113 58.5588 92.0438 58.3319 92.5811 58.2769C92.8995 58.2435 93.1733 58.2733 93.398 58.3673C93.6203 58.459 93.8071 58.6202 93.9305 58.827C94.06 59.0406 94.1392 59.2989 94.1701 59.6013C94.2011 59.9037 94.1803 60.2439 94.1117 60.632Z" fill="#ECF3FE"/>
<path d="M97.9214 78.5174L85.9549 78.5257C85.4314 78.5257 84.9424 78.0872 84.8726 77.5426C84.8028 76.9999 85.1812 76.5543 85.7082 76.5481L97.7531 76.4022C98.2802 76.3959 98.7335 76.867 98.7802 77.4537C98.8249 78.042 98.4453 78.517 97.9214 78.5174Z" fill="#ECF3FE"/>
<path d="M107.61 83.0698L77.5436 82.382C77.0263 82.3702 76.5016 81.9494 76.3808 81.4382C76.26 80.927 76.5914 80.5176 77.1118 80.5235L107.354 80.8707C107.874 80.8766 108.343 81.378 108.413 81.9883C108.481 82.5979 108.127 83.0816 107.61 83.0698Z" fill="#ECF3FE"/>
<path d="M108.362 87.5759L78.6273 86.1995C78.1175 86.1756 77.5684 85.7473 77.4116 85.2412C77.2567 84.7351 77.5551 84.3367 78.0696 84.3564L107.959 85.4032C108.473 85.4209 108.97 85.9262 109.079 86.5291C109.19 87.1319 108.874 87.5995 108.362 87.5759Z" fill="#ECF3FE"/>
<path d="M109.418 92.0135L79.9688 89.9753C79.4621 89.9403 78.8903 89.5082 78.7009 89.0084C78.5119 88.5085 78.7793 88.1259 79.2891 88.1554L108.872 89.8759C109.381 89.9053 109.906 90.4126 110.056 91.0056C110.205 91.5987 109.925 92.0485 109.418 92.0135Z" fill="#ECF3FE"/>
<path d="M110.776 96.3675L81.5677 93.6934C81.0649 93.6474 80.4696 93.2133 80.2453 92.7217C80.0218 92.2298 80.2571 91.8621 80.7614 91.903L110.081 94.2735C110.586 94.3128 111.14 94.8213 111.332 95.4025C111.523 95.9825 111.279 96.4135 110.776 96.3675Z" fill="#ECF3FE"/>
<g style="mix-blend-mode:multiply" opacity="0.2">
<path d="M95.4926 45.7202C94.5566 47.8891 93.7115 50.0851 92.9572 52.3082C92.7319 52.9689 92.5158 53.6317 92.309 54.2969C92.0646 55.0718 91.8327 55.8502 91.6133 56.6319C91.3955 57.4027 91.1894 58.1761 90.9949 58.9521C90.398 61.3163 89.9061 63.7 89.5192 66.1032C89.407 66.7958 89.304 67.4906 89.2101 68.1874C89.1071 68.9477 89.0156 69.7079 88.9356 70.4682C88.8648 71.1265 88.8025 71.7856 88.749 72.4454C88.6365 73.7998 88.559 75.1568 88.5164 76.5167C88.4944 77.1852 88.4814 77.8549 88.4772 78.5258C88.473 79.2357 88.4772 79.9452 88.4897 80.6544C88.5036 81.3145 88.5246 81.9746 88.5529 82.6348C88.5837 83.3332 88.6243 84.0312 88.6744 84.7288C88.7192 85.3769 88.7726 86.0252 88.8348 86.6738C88.8999 87.3572 88.9739 88.0407 89.0568 88.7242C89.1324 89.3573 89.2164 89.9903 89.309 90.6231C89.4062 91.2893 89.512 91.9548 89.6262 92.6196C89.7308 93.2344 89.8431 93.8486 89.9631 94.4624C90.0115 94.7083 90.0607 94.954 90.1109 95.1997C90.2909 96.0349 89.9172 96.5564 89.2552 96.3542L75.3029 92.1096C69.3001 79.1793 67.7102 64.8291 71.8789 50.937C72.0883 50.2763 72.9731 49.6251 73.8354 49.4745C81.0543 48.2243 88.2734 46.9728 95.4926 45.7202Z" fill="#003889"/>
</g>
<path d="M92.8121 37.8006C86.1108 56.3578 85.5833 76.3518 92.3415 94.9731C92.6411 95.7734 92.347 96.3432 91.663 96.2405L49.2099 89.8763C48.526 89.7736 47.673 89.1594 47.3275 88.5101C38.8647 72.1787 36.5854 53.4993 42.56 35.941C42.7835 35.3118 43.6581 34.7015 44.4926 34.5764L86.7104 28.2476C87.3512 29.2118 87.9852 30.1809 88.6124 31.1548C89.3133 32.2472 90.0106 33.3415 90.7042 34.4376C91.4093 35.557 92.1119 36.678 92.8121 37.8006Z" fill="white"/>
<g style="mix-blend-mode:multiply" opacity="0.2">
<path d="M82.9312 38.1461C84.2021 40.2165 90.4865 39.3101 92.2807 39.2715C92.4877 38.6817 92.5944 38.3883 92.8124 37.8008C89.5183 37.9062 86.2245 38.0213 82.9312 38.1461Z" fill="#003889"/>
</g>
<path d="M82.9225 36.8039C82.4809 37.9745 83.095 38.8385 84.2487 38.7154L92.8128 37.8019C90.8104 34.5966 88.7912 31.4031 86.7135 28.2461C85.3111 31.0464 84.0535 33.8825 82.9225 36.8039Z" fill="#3B82F4"/>
<path d="M68.195 42.8583C66.6543 48.7471 65.786 54.7924 65.6067 60.8779C65.591 61.6671 64.9902 62.3163 64.2471 62.3187L44.5605 62.3793C43.8272 62.3816 43.1789 61.8071 43.1374 61.1048C42.8829 55.726 43.2095 50.453 44.157 45.1513C44.2884 44.4647 45.0566 43.8536 45.8496 43.7725L67.1342 41.6093C67.9385 41.5263 68.4064 42.0789 68.195 42.8583Z" fill="#ECF3FE"/>
<path d="M66.0207 54.3991C65.8094 56.558 65.6721 58.7091 65.6082 60.8778C65.5925 61.6671 64.9917 62.3163 64.2486 62.3187L44.562 62.3792C43.8275 62.3816 43.1804 61.8078 43.1389 61.1047C43.0349 59.2706 42.9934 57.4306 43.0439 55.5938C45.1695 53.6375 47.3172 51.71 49.4872 49.8112C50.0864 49.2893 50.955 49.2858 51.3303 49.8151C52.6425 51.672 53.9586 53.5259 55.2786 55.3767C55.5924 55.818 56.25 55.8628 56.7061 55.4672C57.9281 54.407 59.1569 53.3547 60.3924 52.3102C60.8214 51.9477 61.3913 51.8533 61.8121 52.079C63.2215 52.8411 64.6244 53.6145 66.0207 54.3991Z" fill="#3B82F4"/>
<path d="M80.1023 44.4838L70.2292 45.3057C69.7394 45.345 69.4363 44.9813 69.559 44.4909C69.6818 44.0005 70.1865 43.5675 70.6802 43.5227L80.6243 42.6147C81.1176 42.5695 81.3933 42.9525 81.2471 43.4708C81.102 43.9891 80.5921 44.4429 80.1023 44.4838Z" fill="#ECF3FE"/>
<path d="M60.1241 39.5818L45.9357 41.2118C45.4309 41.2696 45.1086 40.9758 45.2219 40.559C45.3356 40.141 45.8447 39.7532 46.3537 39.6911L60.6551 37.94C61.1649 37.8775 61.4508 38.1948 61.3022 38.6506C61.1535 39.106 60.6288 39.5252 60.1241 39.5818Z" fill="#3B82F4"/>
<path d="M56.112 67.0725L44.5432 66.8243C44.0891 66.8145 43.6683 66.4488 43.6099 66.0076C43.551 65.566 43.8781 65.2124 44.3346 65.2183L55.963 65.3642C56.4195 65.3701 56.8163 65.7575 56.8559 66.2325C56.8987 66.706 56.5661 67.0819 56.112 67.0725Z" fill="#ECF3FE"/>
<path d="M83.3909 72.0495L49.8924 70.657C49.4433 70.6385 49.012 70.2571 48.9355 69.8053C48.857 69.353 49.1672 68.9983 49.6182 69.0129L83.2779 70.114C83.7289 70.1285 84.1133 70.5764 84.1434 71.1132C84.1736 71.6492 83.8399 72.0684 83.3909 72.0495Z" fill="#ECF3FE"/>
<path d="M83.8208 76.4156L45.9771 74.0829C45.5328 74.0554 45.0806 73.6779 44.9732 73.239C44.8657 72.8006 45.1457 72.4632 45.592 72.4868L83.6011 74.4923C84.0474 74.5159 84.4518 74.9677 84.5114 75.5006C84.5714 76.0346 84.2655 76.4432 83.8208 76.4156Z" fill="#ECF3FE"/>
<path d="M84.4933 80.7414L46.9951 77.6835C46.5547 77.6478 46.0861 77.2659 45.9544 76.8298C45.823 76.3941 46.0794 76.0661 46.5214 76.0984L84.1671 78.8389C84.609 78.8711 85.0341 79.3257 85.1231 79.8531C85.213 80.3804 84.9337 80.7764 84.4933 80.7414Z" fill="#ECF3FE"/>
<path d="M85.4061 85.0159L48.2127 81.2538C47.7758 81.2097 47.2903 80.8243 47.1346 80.3926C46.9778 79.96 47.2131 79.6422 47.6507 79.6847L84.9736 83.1358C85.412 83.1751 85.8579 83.6329 85.9763 84.1535C86.0952 84.6754 85.843 85.0604 85.4061 85.0159Z" fill="#ECF3FE"/>
<path d="M86.5612 89.231L49.6321 84.7874C49.1983 84.7351 48.6956 84.3477 48.5152 83.9222C48.3348 83.4952 48.5462 83.1873 48.9815 83.236L86.0224 87.3824C86.4573 87.4308 86.9244 87.8877 87.0726 88.4005C87.2208 88.9097 86.995 89.2814 86.5612 89.231Z" fill="#ECF3FE"/>
<path d="M85.2982 48.0257L69.4258 49.0722C68.943 49.104 68.6253 48.7285 68.7226 48.2342C68.8199 47.7402 69.2983 47.3108 69.7842 47.275L85.7684 46.0886C86.2542 46.0528 86.5354 46.4583 86.4041 46.9931C86.2719 47.5322 85.7809 47.9939 85.2982 48.0257Z" fill="#ECF3FE"/>
<path d="M84.4651 52.1088L68.8155 52.8638C68.3398 52.8866 68.0068 52.502 68.0786 52.0046C68.1507 51.5075 68.6025 51.0832 69.0817 51.0561L84.8357 50.1626C85.3145 50.1355 85.6126 50.5504 85.5086 51.0899C85.4047 51.629 84.9408 52.0856 84.4651 52.1088Z" fill="#ECF3FE"/>
<path d="M83.8407 56.2053L68.4005 56.6705C67.9299 56.6847 67.5829 56.2914 67.6291 55.7924C67.6758 55.2934 68.1021 54.8742 68.5742 54.8557L84.1152 54.2533C84.5858 54.2348 84.9027 54.6583 84.8262 55.1994C84.7478 55.7405 84.3113 56.1912 83.8407 56.2053Z" fill="#ECF3FE"/>
<path d="M83.4258 60.3073L68.1782 60.4882C67.7146 60.4937 67.3503 60.0949 67.3715 59.5928C67.3927 59.0929 67.7931 58.6797 68.2593 58.6702L83.5976 58.3556C84.0639 58.3462 84.3964 58.7772 84.3478 59.3187C84.2988 59.8582 83.8894 60.3018 83.4258 60.3073Z" fill="#ECF3FE"/>
<path d="M109.205 113.739L57.285 103.484C56.0301 103.236 54.8198 101.939 54.5759 100.586L53.8869 96.7526L52.7818 90.6074L51.9794 86.1433L50.3437 77.0715L47.5727 61.6647C47.3291 60.3107 48.1472 59.4153 49.4009 59.6626L101.321 69.918C102.576 70.1658 103.79 71.4627 104.033 72.8167L111.037 111.739C111.28 113.091 110.462 113.987 109.205 113.739Z" fill="#F4B545"/>
<g style="mix-blend-mode:multiply" opacity="0.2">
<g style="mix-blend-mode:multiply" opacity="0.2">
<path d="M88.9016 100.56C82.3592 102.611 76.8622 106.961 73.7795 113.149C73.6473 113.423 73.4316 113.486 73.2889 113.287C70.7618 109.757 68.2347 106.227 65.7076 102.697C65.5648 102.498 65.5115 102.132 65.5899 101.884C65.757 101.392 65.9393 100.909 66.137 100.434C68.0049 95.9544 71.241 92.2622 75.6822 90.1285C75.896 90.0302 76.2622 90.1037 76.4979 90.2858L82.407 94.8891C84.6196 96.6136 86.8326 98.3377 89.0459 100.061C89.2828 100.246 89.2158 100.466 88.9016 100.56Z" fill="#003889"/>
</g>
</g>
<path d="M84.8968 96.8481C79.0187 100.383 74.6955 105.908 73.15 112.649C73.0857 112.945 72.8904 113.058 72.7053 112.898L62.8538 104.392C62.6683 104.232 62.5303 103.89 62.5503 103.629C62.5973 103.112 62.6614 102.599 62.7424 102.091C63.5075 97.2967 65.7872 92.9455 69.6053 89.8243C69.79 89.6784 70.1633 89.6635 70.4351 89.785L77.2587 92.8661C79.8138 94.0196 82.3688 95.1738 84.9239 96.3286C85.1937 96.4524 85.1804 96.6817 84.8968 96.8481Z" fill="white"/>
<g style="mix-blend-mode:multiply" opacity="0.2">
<g style="mix-blend-mode:multiply" opacity="0.2">
<path d="M90.0762 100.354C93.2135 103.75 97.4461 105.841 102.092 105.928C102.296 105.928 102.397 106.043 102.318 106.187L98.0916 113.878C98.0132 114.023 97.8065 114.162 97.6324 114.185C97.2862 114.225 96.9404 114.254 96.5947 114.271C93.337 114.428 90.1605 113.527 87.5797 111.437C87.4582 111.335 87.3966 111.09 87.4393 110.893C87.7993 109.248 88.1592 107.602 88.5189 105.956C88.9237 104.107 89.328 102.258 89.7319 100.409C89.7735 100.213 89.926 100.19 90.0762 100.354Z" fill="#003889"/>
</g>
</g>
<path d="M87.9865 101.658C91.565 104.584 96.0443 106.066 100.657 105.506C100.859 105.479 100.975 105.578 100.916 105.732L97.7953 113.937C97.7368 114.091 97.5521 114.257 97.3831 114.304C97.0456 114.392 96.707 114.468 96.3674 114.533C93.1631 115.144 89.892 114.691 87.0473 112.98C86.9124 112.896 86.8179 112.662 86.8332 112.462C86.9621 110.782 87.0908 109.102 87.2194 107.422L87.6536 101.76C87.6689 101.559 87.8167 101.515 87.9865 101.658Z" fill="white"/>
<path d="M40.1055 134.228C41.8207 134.228 43.2111 132.834 43.2111 131.114C43.2111 129.394 41.8207 128 40.1055 128C38.3904 128 37 129.394 37 131.114C37 132.834 38.3904 134.228 40.1055 134.228Z" fill="#3B82F4"/>
<path d="M17.6055 31.4207C18.4336 30.5904 18.4336 29.2441 17.6055 28.4137C16.7774 27.5834 15.4349 27.5834 14.6068 28.4137C13.7787 29.2441 13.7787 30.5904 14.6068 31.4207C15.4349 32.2511 16.7774 32.2511 17.6055 31.4207Z" fill="#C4D7F2"/>
</svg>
