<svg width="171" height="155" viewBox="0 0 171 155" fill="none" xmlns="http://www.w3.org/2000/svg">
<path d="M120.433 0.794122C109.998 -0.472307 99.4349 -0.222933 89.0712 1.53456C74.3544 4.01822 61.5504 8.04454 50.0577 17.8403C44.6893 22.4683 39.2592 28.3766 32.9807 31.7241C26.7021 35.0717 19.2511 35.2414 12.9263 38.9592C7.01796 42.461 2.12778 48.5544 2.12778 55.4192C2.00437 64.3973 10.1342 72.3882 9.31656 81.1658C8.49895 89.9435 0.785729 96.762 0.0606857 105.848C-0.69521 115.413 6.23127 125.625 12.7875 132.073C16.5207 135.745 21.0715 138.923 26.2702 139.555C33.4127 140.419 36.1585 135.621 41.2029 132.089C48.7927 126.782 57.6783 126.921 65.6847 131.101C74.3543 135.729 82.6539 143.442 93.1747 142.532C97.5558 142.131 101.598 140.141 105.886 139.154C116.345 136.778 121.096 145.432 128.918 150.415C134.21 153.78 140.565 155.056 146.746 153.996C152.928 152.935 158.494 149.614 162.362 144.678C166.231 139.741 168.126 133.543 167.678 127.287C167.23 121.032 164.473 115.166 159.94 110.831C153.6 104.522 151.78 101.081 151.07 91.7176C149.926 76.0686 153.76 60.4584 162.023 47.1197C165.216 42.0136 169.104 37.0925 170.276 31.1842C172.066 22.1751 165.201 17.0536 158.274 13.1198C146.591 6.56832 133.733 2.38017 120.433 0.794122Z" fill="#E2ECF2" fill-opacity="0.46"/>
<g style="mix-blend-mode:multiply">
<path d="M90.13 11.6259L36.4654 97.6407C35.4101 99.3321 35.9258 101.559 37.6173 102.614L98.2674 140.454C99.9589 141.509 102.185 140.993 103.241 139.302L156.905 53.287C157.961 51.5955 157.445 49.3688 155.754 48.3135L95.1034 10.4739C93.4119 9.41863 91.1853 9.93447 90.13 11.6259Z" fill="#E6E6E6"/>
</g>
<path d="M93.1695 7.5235L39.4367 93.6987C38.3801 95.3933 38.8971 97.6237 40.5917 98.6803L101.355 136.568C103.05 137.625 105.28 137.107 106.337 135.413L160.069 49.2376C161.126 47.543 160.609 45.3127 158.914 44.256L98.1509 6.36838C96.4563 5.31176 94.2261 5.82891 93.1695 7.5235Z" fill="#F9FAFE"/>
<path d="M149.93 31.7088L145.487 51.3004C144.551 55.3694 142.518 59.1041 139.609 62.0989L138.776 62.9628C138.07 63.6926 137.415 64.4709 136.817 65.2922C134.941 67.8243 133.612 70.7189 132.914 73.7922L120.573 128.433C120.172 130.204 119.084 131.744 117.548 132.713C116.011 133.682 114.153 134.001 112.382 133.601L45.8937 118.529C44.939 118.313 44.0494 117.873 43.2984 117.245C42.5473 116.618 41.9563 115.82 41.5742 114.919L60.4255 31.755C61.9621 24.97 66.1213 19.0688 71.9946 15.3401C77.8679 11.6115 84.9779 10.3586 91.7719 11.855H91.9416L145.086 23.903C145.918 24.0955 146.703 24.4504 147.397 24.9474C148.091 25.4444 148.68 26.0736 149.13 26.799C149.58 27.5243 149.883 28.3316 150.02 29.1741C150.157 30.0167 150.126 30.8781 149.93 31.7088Z" fill="#2A4357"/>
<g style="mix-blend-mode:multiply">
<path d="M98.2467 17.7475L63.5668 114.392C63.0143 115.932 63.8146 117.628 65.3543 118.18L109.684 134.087C111.223 134.64 112.919 133.84 113.472 132.3L148.152 35.6554C148.704 34.1157 147.904 32.4196 146.364 31.8672L102.035 15.96C100.495 15.4075 98.7992 16.2078 98.2467 17.7475Z" fill="#E6E6E6"/>
</g>
<path d="M97.5201 16.5115L62.8402 113.156C62.2878 114.696 63.088 116.392 64.6276 116.944L108.957 132.851C110.497 133.404 112.193 132.604 112.745 131.064L147.425 34.4195C147.978 32.8798 147.177 31.1837 145.638 30.6312L101.308 14.724C99.7687 14.1715 98.0726 14.9719 97.5201 16.5115Z" fill="#F9FAFE"/>
<g style="mix-blend-mode:multiply">
<path d="M78.8293 13.2449L51.5698 111.407C51.0728 113.196 52.1207 115.05 53.9103 115.547L113.619 132.128C115.408 132.625 117.262 131.577 117.759 129.787L145.019 31.6257C145.516 29.8361 144.468 27.9826 142.678 27.4856L82.9695 10.9045C81.1799 10.4076 79.3263 11.4553 78.8293 13.2449Z" fill="#CCCCCC"/>
</g>
<path d="M78.4563 12.359L51.1967 110.521C50.6998 112.31 51.7477 114.164 53.5373 114.661L113.246 131.242C115.035 131.739 116.889 130.691 117.386 128.901L144.645 30.7398C145.142 28.9502 144.095 27.0967 142.305 26.5997L82.5965 10.0186C80.8069 9.52166 78.9533 10.5694 78.4563 12.359Z" fill="#F9FAFE"/>
<path d="M136.957 72.4655L123.999 129.543C123.62 131.212 122.596 132.662 121.151 133.579C119.706 134.495 117.957 134.802 116.286 134.433L45.8797 118.483C44.925 118.267 44.0354 117.827 43.2843 117.199C42.5333 116.571 41.9422 115.774 41.5602 114.873C41.0561 113.685 40.9375 112.368 41.2208 111.109L63.728 11.7778C64.0954 10.185 65.0801 8.80299 66.4655 7.93532C67.8508 7.06764 69.5238 6.78519 71.1173 7.14987L134.366 21.4965C136.032 21.8796 137.48 22.9043 138.396 24.3483C139.311 25.7924 139.62 27.5392 139.256 29.2097L134.335 50.9455C133.718 53.6149 133.857 56.4033 134.736 58.9982L136.525 64.3357C136.634 64.6287 136.727 64.9273 136.803 65.2304C137.448 67.5929 137.501 70.0777 136.957 72.4655Z" fill="#436577"/>
<g style="mix-blend-mode:multiply">
<path d="M67.8115 12.7804L45.3044 112.111C44.9443 113.703 45.2289 115.372 46.0962 116.754C46.9635 118.136 48.3428 119.118 49.9323 119.485L45.8288 118.56C44.8741 118.344 43.9846 117.904 43.2335 117.276C42.4825 116.648 41.8916 115.851 41.5095 114.95C41.0055 113.762 40.8867 112.445 41.17 111.186L63.6773 11.8549C64.0448 10.2621 65.0292 8.88008 66.4146 8.01241C67.8 7.14473 69.473 6.86227 71.0665 7.22696L75.17 8.16795C73.5831 7.81196 71.92 8.09681 70.542 8.96055C69.1641 9.8243 68.1827 11.1971 67.8115 12.7804Z" fill="#CCCCCC"/>
</g>
<g style="mix-blend-mode:multiply">
<path d="M123.299 16.7142H49.6689C47.6157 16.7142 45.9512 18.3787 45.9512 20.432V124.838C45.9512 126.891 47.6157 128.556 49.6689 128.556H123.299C125.353 128.556 127.017 126.891 127.017 124.838V20.432C127.017 18.3787 125.353 16.7142 123.299 16.7142Z" fill="#CCCCCC"/>
</g>
<path d="M121.866 15.2642H48.2354C46.1821 15.2642 44.5176 16.9287 44.5176 18.9819V123.388C44.5176 125.441 46.1821 127.106 48.2354 127.106H121.866C123.919 127.106 125.584 125.441 125.584 123.388V18.9819C125.584 16.9287 123.919 15.2642 121.866 15.2642Z" fill="#F9FAFE"/>
<path d="M54.3179 64.7059C54.7203 65.0071 55.2219 65.1449 55.7217 65.0915H76.5475C76.7644 65.0778 76.9765 65.0213 77.1715 64.9254C77.3666 64.8295 77.5408 64.696 77.6841 64.5326C77.8274 64.3692 77.937 64.1791 78.0067 63.9732C78.0764 63.7673 78.1048 63.5497 78.0901 63.3329V45.2994C78.0901 44.9908 78.0901 44.6823 78.0901 44.3738C78.0901 43.7722 78.0901 43.1397 78.0901 42.5072C78.0904 42.2979 78.0481 42.0908 77.9658 41.8985C77.8835 41.7061 77.7629 41.5324 77.6114 41.3881C77.4599 41.2438 77.2805 41.1319 77.0843 41.0591C76.8882 40.9862 76.6792 40.9541 76.4703 40.9645H55.6291C55.1937 40.9392 54.766 41.0872 54.4394 41.3763C54.1127 41.6653 53.9139 42.0719 53.8861 42.5072V63.194C53.8438 63.4622 53.8605 63.7365 53.9351 63.9976C54.0097 64.2587 54.1403 64.5005 54.3179 64.7059Z" fill="#CCCCCC"/>
<path d="M115.528 41.9055H83.5331C83.3695 41.9055 83.2125 41.9706 83.0968 42.0863C82.9811 42.202 82.916 42.359 82.916 42.5226C82.916 42.6863 82.9811 42.8432 83.0968 42.9589C83.2125 43.0747 83.3695 43.1396 83.5331 43.1396H115.528C115.691 43.1396 115.848 43.0747 115.964 42.9589C116.08 42.8432 116.145 42.6863 116.145 42.5226C116.145 42.359 116.08 42.202 115.964 42.0863C115.848 41.9706 115.691 41.9055 115.528 41.9055Z" fill="#CCCCCC"/>
<path d="M115.53 45.1451H84.3376C84.0808 45.1298 83.8232 45.1298 83.5663 45.1451C83.4027 45.1451 83.2457 45.2101 83.13 45.3258C83.0143 45.4415 82.9492 45.5985 82.9492 45.7621C82.9492 45.9258 83.0143 46.0827 83.13 46.1984C83.2457 46.3142 83.4027 46.3792 83.5663 46.3792H115.561C115.724 46.3792 115.881 46.3142 115.997 46.1984C116.113 46.0827 116.178 45.9258 116.178 45.7621C116.178 45.5985 116.113 45.4415 115.997 45.3258C115.881 45.2101 115.724 45.1451 115.561 45.1451H115.53Z" fill="#CCCCCC"/>
<path d="M115.524 48.3693H83.5296C83.4485 48.3713 83.3687 48.3892 83.2946 48.4221C83.2205 48.455 83.1535 48.5021 83.0976 48.5609C83.0417 48.6196 82.9981 48.6888 82.969 48.7644C82.9399 48.8401 82.9259 48.9208 82.9279 49.0018C82.9259 49.0821 82.9399 49.1619 82.9692 49.2367C82.9985 49.3115 83.0425 49.3797 83.0985 49.4372C83.1546 49.4947 83.2217 49.5404 83.2957 49.5716C83.3697 49.6028 83.4493 49.6188 83.5296 49.6188H115.524C115.606 49.6209 115.687 49.6064 115.763 49.5761C115.838 49.5459 115.907 49.5006 115.965 49.4428C116.023 49.3851 116.068 49.3162 116.098 49.2404C116.129 49.1646 116.143 49.0834 116.141 49.0018C116.143 48.9195 116.129 48.8375 116.099 48.7609C116.068 48.6842 116.023 48.6144 115.966 48.5554C115.908 48.4965 115.84 48.4496 115.764 48.4177C115.688 48.3857 115.606 48.3692 115.524 48.3693Z" fill="#CCCCCC"/>
<path d="M115.528 56.715H83.5331C83.3695 56.715 83.2125 56.7799 83.0968 56.8957C82.9811 57.0114 82.916 57.1683 82.916 57.332C82.916 57.4956 82.9811 57.6526 83.0968 57.7683C83.2125 57.884 83.3695 57.9491 83.5331 57.9491H115.528C115.691 57.9491 115.848 57.884 115.964 57.7683C116.08 57.6526 116.145 57.4956 116.145 57.332C116.145 57.1683 116.08 57.0114 115.964 56.8957C115.848 56.7799 115.691 56.715 115.528 56.715Z" fill="#CCCCCC"/>
<path d="M115.526 59.9391H84.3341C84.0772 59.9238 83.8197 59.9238 83.5628 59.9391C83.4817 59.9411 83.4019 59.959 83.3278 59.9919C83.2537 60.0248 83.1867 60.0719 83.1308 60.1307C83.0749 60.1894 83.0313 60.2586 83.0022 60.3342C82.9731 60.4099 82.9591 60.4906 82.9611 60.5716C82.9591 60.6519 82.9731 60.7317 83.0024 60.8065C83.0317 60.8813 83.0757 60.9495 83.1317 61.007C83.1878 61.0645 83.2549 61.1102 83.3289 61.1414C83.4029 61.1726 83.4825 61.1886 83.5628 61.1886H115.557C115.639 61.1907 115.72 61.1762 115.796 61.146C115.872 61.1157 115.941 61.0704 115.998 61.0126C116.056 60.9549 116.101 60.886 116.132 60.8102C116.162 60.7344 116.176 60.6532 116.174 60.5716C116.176 60.4866 116.161 60.4021 116.129 60.3233C116.097 60.2445 116.049 60.1732 115.988 60.1138C115.928 60.0544 115.855 60.0082 115.776 59.9781C115.696 59.9481 115.611 59.9348 115.526 59.9391Z" fill="#CCCCCC"/>
<path d="M115.524 63.1787H83.5296C83.4485 63.1807 83.3687 63.1987 83.2946 63.2315C83.2205 63.2644 83.1535 63.3115 83.0976 63.3702C83.0417 63.429 82.9981 63.4981 82.969 63.5738C82.9399 63.6494 82.9259 63.7301 82.9279 63.8112C82.9259 63.8914 82.9399 63.9714 82.9692 64.0462C82.9985 64.1209 83.0425 64.189 83.0985 64.2465C83.1546 64.304 83.2217 64.3498 83.2957 64.381C83.3697 64.4122 83.4493 64.4283 83.5296 64.4282H115.524C115.606 64.4304 115.687 64.4159 115.763 64.3856C115.838 64.3553 115.907 64.3099 115.965 64.2522C116.023 64.1945 116.068 64.1256 116.098 64.0497C116.129 63.9739 116.143 63.8928 116.141 63.8112C116.143 63.7288 116.129 63.647 116.099 63.5703C116.068 63.4936 116.023 63.4238 115.966 63.3649C115.908 63.3059 115.84 63.2591 115.764 63.2271C115.688 63.1951 115.606 63.1787 115.524 63.1787Z" fill="#CCCCCC"/>
<path d="M115.527 86.3184H76.5446C75.511 86.3184 74.4466 86.3184 73.4593 86.3184C73.3782 86.3204 73.2984 86.3382 73.2243 86.3711C73.1502 86.404 73.0833 86.4511 73.0275 86.5099C72.9716 86.5686 72.9278 86.6378 72.8987 86.7134C72.8695 86.7891 72.8556 86.8697 72.8576 86.9507C72.8556 87.031 72.8695 87.1109 72.8989 87.1857C72.9282 87.2605 72.9722 87.3288 73.0282 87.3863C73.0843 87.4438 73.1514 87.4894 73.2254 87.5205C73.2994 87.5517 73.379 87.5678 73.4593 87.5678H113.09H115.651C115.732 87.5699 115.813 87.5555 115.889 87.5253C115.965 87.495 116.034 87.4497 116.092 87.3919C116.149 87.3342 116.195 87.2653 116.225 87.1895C116.255 87.1137 116.27 87.0323 116.268 86.9507C116.272 86.8569 116.255 86.7635 116.217 86.6773C116.18 86.5911 116.123 86.5146 116.052 86.4536C115.981 86.3926 115.896 86.3488 115.805 86.3253C115.714 86.3019 115.619 86.2995 115.527 86.3184Z" fill="#CCCCCC"/>
<path d="M115.528 89.5579H76.5451C75.5115 89.5579 74.4471 89.5579 73.4598 89.5579C73.311 89.5814 73.1755 89.6571 73.0776 89.7717C72.9797 89.8862 72.9258 90.0321 72.9258 90.1827C72.9258 90.3334 72.9797 90.4791 73.0776 90.5936C73.1755 90.7082 73.311 90.7839 73.4598 90.8074H115.697C115.846 90.7839 115.982 90.7082 116.08 90.5936C116.178 90.4791 116.232 90.3334 116.232 90.1827C116.232 90.0321 116.178 89.8862 116.08 89.7717C115.982 89.6571 115.846 89.5814 115.697 89.5579H115.528Z" fill="#CCCCCC"/>
<path d="M115.527 92.7973H76.5446C75.511 92.7973 74.4466 92.7973 73.4593 92.7973C73.379 92.7973 73.2994 92.8134 73.2254 92.8446C73.1514 92.8758 73.0843 92.9215 73.0282 92.979C72.9722 93.0365 72.9282 93.1046 72.8989 93.1794C72.8695 93.2542 72.8556 93.3341 72.8576 93.4144C72.8556 93.4954 72.8695 93.576 72.8987 93.6517C72.9278 93.7273 72.9716 93.7965 73.0275 93.8552C73.0833 93.914 73.1502 93.9612 73.2243 93.994C73.2984 94.0269 73.3782 94.0449 73.4593 94.0469H115.697C115.779 94.047 115.861 94.0305 115.937 93.9985C116.013 93.9666 116.081 93.9196 116.139 93.8607C116.196 93.8018 116.241 93.7319 116.271 93.6553C116.302 93.5786 116.316 93.4967 116.314 93.4144C116.321 93.3158 116.304 93.2169 116.264 93.1265C116.225 93.036 116.163 92.9568 116.085 92.8958C116.008 92.8348 115.916 92.794 115.819 92.7768C115.721 92.7596 115.621 92.7666 115.527 92.7973Z" fill="#CCCCCC"/>
<path d="M115.531 71.5242H54.3808C54.2171 71.5242 54.0602 71.5892 53.9445 71.7049C53.8287 71.8207 53.7637 71.9776 53.7637 72.1413C53.7637 72.3049 53.8287 72.4619 53.9445 72.5776C54.0602 72.6933 54.2171 72.7584 54.3808 72.7584H115.531C115.612 72.7584 115.693 72.7425 115.767 72.7115C115.842 72.6805 115.91 72.6349 115.968 72.5776C116.025 72.5203 116.07 72.4523 116.101 72.3774C116.132 72.3025 116.148 72.2223 116.148 72.1413C116.148 72.0602 116.132 71.98 116.101 71.9051C116.07 71.8303 116.025 71.7622 115.968 71.7049C115.91 71.6476 115.842 71.6023 115.767 71.5712C115.693 71.5402 115.612 71.5242 115.531 71.5242Z" fill="#CCCCCC"/>
<path d="M115.528 74.7022H54.3772C54.2962 74.7042 54.2163 74.7223 54.1422 74.7551C54.0681 74.788 54.0013 74.835 53.9454 74.8937C53.8896 74.9525 53.8458 75.0216 53.8166 75.0973C53.7875 75.1729 53.7735 75.2537 53.7756 75.3347C53.7735 75.415 53.7875 75.495 53.8168 75.5698C53.8461 75.6445 53.8901 75.7126 53.9462 75.7701C54.0023 75.8276 54.0693 75.8734 54.1434 75.9046C54.2174 75.9358 54.2969 75.9519 54.3772 75.9518H115.528C115.609 75.954 115.69 75.9394 115.766 75.9091C115.842 75.8788 115.911 75.8335 115.969 75.7758C116.026 75.718 116.072 75.6492 116.102 75.5733C116.132 75.4975 116.147 75.4164 116.145 75.3347C116.147 75.2524 116.132 75.1706 116.102 75.0939C116.072 75.0172 116.027 74.9474 115.97 74.8884C115.912 74.8295 115.843 74.7826 115.767 74.7506C115.692 74.7186 115.61 74.7022 115.528 74.7022Z" fill="#CCCCCC"/>
<path d="M115.529 77.9881H55.9676C55.474 77.9881 54.9803 77.9881 54.425 77.9881H54.3323C54.252 77.988 54.1725 78.0041 54.0984 78.0353C54.0244 78.0665 53.9575 78.1121 53.9015 78.1696C53.8454 78.2271 53.8014 78.2954 53.7721 78.3702C53.7428 78.4449 53.7286 78.5249 53.7307 78.6052C53.7286 78.6862 53.7426 78.7668 53.7717 78.8424C53.8008 78.9181 53.8447 78.9873 53.9005 79.046C53.9564 79.1047 54.0232 79.1519 54.0973 79.1848C54.1714 79.2177 54.2513 79.2355 54.3323 79.2375H115.483C115.565 79.2375 115.647 79.2211 115.723 79.1891C115.798 79.1571 115.867 79.1104 115.925 79.0515C115.982 78.9925 116.027 78.9227 116.057 78.846C116.087 78.7694 116.102 78.6875 116.1 78.6052C116.104 78.4482 116.047 78.2956 115.94 78.1803C115.834 78.065 115.686 77.9961 115.529 77.9881Z" fill="#CCCCCC"/>
<path d="M64.0234 84.8837H56.7113C56.2895 84.8752 55.8809 85.0318 55.5726 85.3199C55.2643 85.608 55.0806 86.0049 55.0606 86.4264V93.6924C55.0393 94.1268 55.1889 94.5523 55.4771 94.878C55.7654 95.2037 56.1694 95.4037 56.6032 95.4354C56.9735 95.4354 57.3438 95.4354 57.7141 95.4354H64.2086C64.4213 95.4255 64.6301 95.3739 64.8228 95.2832C65.0156 95.1925 65.1885 95.0646 65.3318 94.907C65.4751 94.7494 65.586 94.5651 65.658 94.3646C65.7299 94.1641 65.7616 93.9513 65.7512 93.7385V86.4573C65.7455 86.2391 65.6957 86.0243 65.6049 85.8259C65.5141 85.6274 65.384 85.4493 65.2226 85.3024C65.0612 85.1554 64.8719 85.0425 64.6658 84.9706C64.4597 84.8986 64.2412 84.8691 64.0234 84.8837ZM56.3102 94.1396C56.2335 93.9382 56.207 93.721 56.233 93.5071C56.2401 93.4353 56.2401 93.3631 56.233 93.2913V87.2286C56.2402 87.1465 56.2402 87.0638 56.233 86.9817C56.1999 86.7825 56.1999 86.5792 56.233 86.3801C56.233 86.2104 56.4646 86.1643 56.7731 86.1643H63.9462C64.2393 86.1643 64.3165 86.3339 64.3165 86.8738V90.7459C64.3165 91.1007 64.3165 91.4554 64.3165 91.8102C64.3165 92.489 64.3165 93.1985 64.3165 93.8927C64.3208 93.9925 64.2862 94.0902 64.22 94.165C64.1539 94.2398 64.0612 94.2859 63.9617 94.2938H56.9273C56.7268 94.2476 56.4954 94.2476 56.372 94.0933L56.3102 94.1396Z" fill="#CCCCCC"/>
<path d="M115.533 104.907H76.55C75.5165 104.907 74.452 104.907 73.4648 104.907C73.3011 104.907 73.1442 104.972 73.0284 105.088C72.9127 105.204 72.8477 105.361 72.8477 105.524C72.8477 105.688 72.9127 105.845 73.0284 105.961C73.1442 106.076 73.3011 106.141 73.4648 106.141H113.095C114.175 106.141 115.132 106.141 115.656 106.141C115.82 106.141 115.977 106.076 116.092 105.961C116.208 105.845 116.273 105.688 116.273 105.524C116.273 105.361 116.208 105.204 116.092 105.088C115.977 104.972 115.82 104.907 115.656 104.907H115.533Z" fill="#CCCCCC"/>
<path d="M115.533 108.147H76.55C75.5165 108.147 74.452 108.147 73.4648 108.147C73.3011 108.147 73.1442 108.212 73.0284 108.327C72.9127 108.443 72.8477 108.6 72.8477 108.764C72.8477 108.927 72.9127 109.084 73.0284 109.2C73.1442 109.316 73.3011 109.381 73.4648 109.381H113.095H115.656C115.737 109.381 115.817 109.365 115.892 109.334C115.967 109.303 116.035 109.257 116.092 109.2C116.15 109.143 116.195 109.075 116.226 109C116.257 108.925 116.273 108.845 116.273 108.764C116.273 108.683 116.257 108.602 116.226 108.528C116.195 108.453 116.15 108.385 116.092 108.327C116.035 108.27 115.967 108.225 115.892 108.194C115.817 108.163 115.737 108.147 115.656 108.147H115.533Z" fill="#CCCCCC"/>
<path d="M115.527 111.371H76.5446C75.511 111.371 74.4466 111.371 73.4593 111.371C73.3782 111.373 73.2984 111.391 73.2243 111.424C73.1502 111.457 73.0833 111.504 73.0275 111.562C72.9716 111.621 72.9278 111.69 72.8987 111.766C72.8695 111.842 72.8556 111.922 72.8576 112.003C72.8556 112.084 72.8695 112.163 72.8989 112.238C72.9282 112.313 72.9722 112.381 73.0282 112.439C73.0843 112.496 73.1514 112.542 73.2254 112.573C73.2994 112.604 73.379 112.62 73.4593 112.62H113.09H115.651C115.732 112.622 115.813 112.608 115.889 112.578C115.965 112.548 116.034 112.502 116.092 112.444C116.149 112.387 116.195 112.318 116.225 112.242C116.255 112.166 116.27 112.085 116.268 112.003C116.272 111.91 116.255 111.816 116.217 111.73C116.18 111.644 116.123 111.567 116.052 111.506C115.981 111.445 115.896 111.401 115.805 111.378C115.714 111.354 115.619 111.352 115.527 111.371Z" fill="#CCCCCC"/>
<path d="M64.0234 103.457H56.7113C56.2905 103.452 55.8842 103.61 55.5767 103.897C55.2693 104.185 55.0844 104.58 55.0606 105V112.265C55.0394 112.698 55.1894 113.122 55.478 113.445C55.7667 113.769 56.1707 113.965 56.6032 113.993H57.7141H64.2085C64.6396 113.969 65.0437 113.776 65.3327 113.455C65.6218 113.134 65.7722 112.712 65.7512 112.281V105C65.7394 104.785 65.6853 104.574 65.5921 104.38C65.4988 104.187 65.368 104.013 65.2075 103.87C65.047 103.726 64.8597 103.616 64.6565 103.545C64.4533 103.474 64.2382 103.444 64.0234 103.457ZM56.3102 112.713C56.2334 112.506 56.2069 112.284 56.233 112.065C56.24 111.998 56.24 111.931 56.233 111.864V105.802C56.2407 105.72 56.2407 105.637 56.233 105.555C56.1993 105.356 56.1993 105.152 56.233 104.953C56.233 104.768 56.4645 104.737 56.7731 104.737H63.9462C64.2393 104.737 64.3164 104.892 64.3164 105.432V109.319C64.3164 109.658 64.3164 110.029 64.3164 110.368C64.3164 111.062 64.3164 111.772 64.3164 112.466C64.3207 112.515 64.3148 112.565 64.2989 112.611C64.283 112.658 64.2575 112.701 64.2242 112.737C64.1908 112.773 64.1501 112.802 64.105 112.822C64.0598 112.842 64.011 112.852 63.9617 112.852H56.9273C56.7267 112.836 56.4954 112.836 56.372 112.682L56.3102 112.713Z" fill="#CCCCCC"/>
<path d="M115.559 25.6923H54.3624C54.2456 25.6943 54.1304 25.7196 54.0234 25.7666C53.9165 25.8136 53.8199 25.8815 53.7394 25.9662C53.659 26.051 53.5963 26.1508 53.5549 26.2601C53.5135 26.3693 53.4945 26.4858 53.4986 26.6025C53.4945 26.7185 53.5137 26.8342 53.5553 26.9426C53.5968 27.051 53.6598 27.1499 53.7404 27.2334C53.821 27.3169 53.9177 27.3833 54.0246 27.4286C54.1314 27.474 54.2463 27.4974 54.3624 27.4973H115.559C115.778 27.4686 115.979 27.3612 116.125 27.1951C116.271 27.0291 116.351 26.8157 116.351 26.5948C116.351 26.3739 116.271 26.1605 116.125 25.9945C115.979 25.8284 115.778 25.721 115.559 25.6923Z" fill="#CCCCCC"/>
<path d="M54.3602 30.7368H108.106C108.325 30.7081 108.526 30.6007 108.672 30.4347C108.817 30.2686 108.898 30.0552 108.898 29.8343C108.898 29.6134 108.817 29.4001 108.672 29.2341C108.526 29.068 108.325 28.9606 108.106 28.9319H54.3602C54.1412 28.9606 53.94 29.068 53.7943 29.2341C53.6486 29.4001 53.5684 29.6134 53.5684 29.8343C53.5684 30.0552 53.6486 30.2686 53.7943 30.4347C53.94 30.6007 54.1412 30.7081 54.3602 30.7368Z" fill="#CCCCCC"/>
<path d="M94.7467 33.9763H96.9372C97.1562 33.9476 97.3573 33.8403 97.5031 33.6743C97.6488 33.5082 97.7292 33.2948 97.7292 33.0739C97.7292 32.853 97.6488 32.6396 97.5031 32.4736C97.3573 32.3075 97.1562 32.2001 96.9372 32.1714H54.3602C54.1412 32.2001 53.94 32.3075 53.7943 32.4736C53.6486 32.6396 53.5684 32.853 53.5684 33.0739C53.5684 33.2948 53.6486 33.5082 53.7943 33.6743C53.94 33.8403 54.1412 33.9476 54.3602 33.9763H94.7467Z" fill="#CCCCCC"/>
<path d="M67.3326 47.6133H60.3136C60.1091 47.6133 59.9434 47.7791 59.9434 47.9836V55.7585C59.9434 55.963 60.1091 56.1287 60.3136 56.1287H67.3326C67.5371 56.1287 67.7029 55.963 67.7029 55.7585V47.9836C67.7029 47.7791 67.5371 47.6133 67.3326 47.6133Z" fill="white"/>
<path d="M67.1855 48.6161V54.5552C67.1843 54.6149 67.1698 54.6735 67.1431 54.7269C67.1164 54.7802 67.0781 54.8271 67.031 54.8638C66.9622 54.9097 66.8824 54.9363 66.7998 54.9409H60.8759C60.7736 54.9409 60.6755 54.9002 60.6032 54.8279C60.5309 54.7556 60.4902 54.6575 60.4902 54.5552V48.6161C60.4902 48.5138 60.5309 48.4156 60.6032 48.3433C60.6755 48.271 60.7736 48.2304 60.8759 48.2304H66.7998C66.9021 48.2304 67.0001 48.271 67.0725 48.3433C67.1448 48.4156 67.1855 48.5138 67.1855 48.6161Z" fill="#E6E6E6"/>
<path d="M62.7546 49.8656C62.7546 50.0416 62.6846 50.2102 62.5602 50.3346C62.4358 50.459 62.2671 50.529 62.0912 50.529C61.9152 50.529 61.7465 50.459 61.6221 50.3346C61.4977 50.2102 61.4277 50.0416 61.4277 49.8656C61.4277 49.6897 61.4977 49.5209 61.6221 49.3965C61.7465 49.2721 61.9152 49.2022 62.0912 49.2022C62.2671 49.2022 62.4358 49.2721 62.5602 49.3965C62.6846 49.5209 62.7546 49.6897 62.7546 49.8656Z" fill="#999999"/>
<path d="M67.031 54.8638C66.9622 54.9097 66.8824 54.9364 66.7998 54.9409H60.8759C60.7736 54.9409 60.6755 54.9002 60.6032 54.8279C60.5309 54.7556 60.4902 54.6575 60.4902 54.5552V53.8919L62.866 52.3493C63.1877 52.1387 63.574 52.0494 63.9555 52.0974C64.3371 52.1455 64.689 52.3277 64.9485 52.6115L67.031 54.8638Z" fill="#999999"/>
<path d="M64.4148 49.4544L62.2338 56.6919C62.1748 56.8877 62.2857 57.0942 62.4815 57.1532L69.01 59.1206C69.2058 59.1796 69.4123 59.0687 69.4713 58.8729L71.6523 51.6354C71.7113 51.4396 71.6004 51.2331 71.4046 51.1741L64.8762 49.2068C64.6804 49.1478 64.4738 49.2586 64.4148 49.4544Z" fill="white"/>
<path d="M71.0972 52.2413L69.4312 57.764C69.4025 57.8588 69.3385 57.9388 69.2524 57.9876C69.1662 58.0365 69.0644 58.0503 68.9684 58.0262L63.4458 56.3602C63.3842 56.3408 63.3282 56.3069 63.2825 56.2612C63.2369 56.2155 63.2028 56.1595 63.1835 56.0979C63.168 56.0268 63.168 55.9531 63.1835 55.8819L64.8496 50.3592C64.8815 50.2639 64.9492 50.1847 65.0385 50.1386C65.1278 50.0925 65.2316 50.0832 65.3278 50.1125L70.8505 51.7785C70.8972 51.7926 70.9406 51.8158 70.9782 51.8467C71.0159 51.8776 71.047 51.9157 71.0699 51.9587C71.0929 52.0017 71.107 52.0488 71.1117 52.0973C71.1164 52.1458 71.1115 52.1947 71.0972 52.2413Z" fill="#E6E6E6"/>
<path d="M70.0698 55.6659L69.4372 57.764C69.4085 57.8588 69.3445 57.9388 69.2583 57.9876C69.1722 58.0364 69.0704 58.0503 68.9744 58.0262L63.4518 56.3601C63.3902 56.3408 63.3342 56.3068 63.2885 56.2612C63.2428 56.2155 63.2088 56.1595 63.1895 56.0979L65.2413 54.0925C65.2558 54.0761 65.2735 54.0629 65.2935 54.0539C65.3134 54.0449 65.335 54.0402 65.3569 54.0402C65.3788 54.0402 65.4004 54.0449 65.4204 54.0539C65.4403 54.0629 65.4581 54.0761 65.4725 54.0925L66.7222 55.9437L68.6968 53.3674C68.7085 53.3447 68.7261 53.3258 68.7478 53.3125C68.7696 53.2992 68.7946 53.2922 68.8201 53.2922C68.8456 53.2922 68.8707 53.2992 68.8925 53.3125C68.9142 53.3258 68.9318 53.3447 68.9435 53.3674L70.0698 55.6659Z" fill="#999999"/>
</svg>
