<svg width="21" height="15" viewBox="0 0 21 15" fill="none" xmlns="http://www.w3.org/2000/svg">
<path d="M10.227 10.2275C11.7333 10.2275 12.9543 9.00645 12.9543 7.50022C12.9543 5.99399 11.7333 4.77295 10.227 4.77295C8.7208 4.77295 7.49976 5.99399 7.49976 7.50022C7.49976 9.00645 8.7208 10.2275 10.227 10.2275Z" fill="#717579"/>
<path d="M20.4133 7.26818C19.6114 5.19385 18.2192 3.39997 16.4089 2.10824C14.5985 0.816515 12.4494 0.0835725 10.227 0C8.00461 0.0835725 5.85543 0.816515 4.04507 2.10824C2.23472 3.39997 0.842547 5.19385 0.040619 7.26818C-0.0135397 7.41798 -0.0135397 7.58202 0.040619 7.73182C0.842547 9.80615 2.23472 11.6 4.04507 12.8918C5.85543 14.1835 8.00461 14.9164 10.227 15C12.4494 14.9164 14.5985 14.1835 16.4089 12.8918C18.2192 11.6 19.6114 9.80615 20.4133 7.73182C20.4675 7.58202 20.4675 7.41798 20.4133 7.26818ZM10.227 11.9318C9.35045 11.9318 8.49361 11.6719 7.7648 11.1849C7.03599 10.6979 6.46795 10.0058 6.13252 9.19598C5.79708 8.38617 5.70932 7.49508 5.88032 6.6354C6.05132 5.77571 6.47341 4.98603 7.09321 4.36623C7.71301 3.74643 8.50269 3.32434 9.36238 3.15334C10.2221 2.98234 11.1132 3.0701 11.923 3.40553C12.7328 3.74097 13.4249 4.30901 13.9119 5.03781C14.3989 5.76662 14.6588 6.62347 14.6588 7.5C14.657 8.67484 14.1895 9.80104 13.3588 10.6318C12.528 11.4625 11.4018 11.93 10.227 11.9318Z" fill="#717579"/>
</svg>
