<svg width="50" height="51" viewBox="0 0 50 51" fill="none" xmlns="http://www.w3.org/2000/svg">
<g clip-path="url(#clip0_426_2081)">
<path d="M25 50.875C38.8071 50.875 50 39.6821 50 25.875C50 12.0679 38.8071 0.875 25 0.875C11.1929 0.875 0 12.0679 0 25.875C0 39.6821 11.1929 50.875 25 50.875Z" fill="#0F3F62"/>
<path d="M25.8318 26.7814C25.9591 26.7771 26.0851 26.7546 26.2059 26.7145C27.1893 26.5253 28.0857 26.0248 28.7628 25.2869C29.4398 24.5491 29.8616 23.613 29.9657 22.617C29.9657 22.5588 29.9657 22.5588 29.9832 22.5413C30.0015 22.526 30.0248 22.5182 30.0486 22.5195C30.2855 22.4923 30.506 22.3847 30.6731 22.2146C30.8403 22.0446 30.944 21.8223 30.9671 21.585L30.9526 18.0057L32.5784 16.5079C32.9496 16.1644 32.4649 15.8937 32.4649 15.8937C30.3611 15.1913 28.3748 14.1766 26.5727 12.8835C26.4812 12.7763 26.3675 12.6903 26.2394 12.6312C26.1114 12.5722 25.9721 12.5416 25.8311 12.5416C25.6901 12.5416 25.5508 12.5722 25.4228 12.6312C25.2948 12.6903 25.1811 12.7763 25.0895 12.8835C23.288 14.1767 21.3022 15.1914 19.1987 15.8937C19.1987 15.8937 18.7141 16.1644 19.0852 16.5079C19.4564 16.8515 20.7111 18.0057 20.7111 18.0057L20.6966 21.585C20.7189 21.8119 20.815 22.0253 20.9701 22.1925C21.1251 22.3597 21.3307 22.4714 21.5553 22.5107C21.598 22.5109 21.639 22.527 21.6703 22.5559C21.698 22.585 21.6951 22.5835 21.7038 22.6854C21.8232 23.6633 22.2481 24.5785 22.9179 25.3009C23.5877 26.0232 24.4684 26.5159 25.4345 26.7086C25.5628 26.7515 25.6966 26.776 25.8318 26.7814Z" fill="white" stroke="#0F3F62" stroke-width="0.4" stroke-miterlimit="10"/>
<path d="M25.8848 20.7379H29.0521C29.7704 20.5983 30.4238 20.2289 30.9138 19.6855C30.9444 19.655 30.9647 19.6535 30.9604 19.6375C30.956 19.6215 30.9473 19.6302 30.9182 19.62C29.293 19.1016 27.589 18.8745 25.8848 18.949C24.1968 18.8813 22.5097 19.1029 20.8965 19.604C20.8703 19.6115 20.8453 19.6228 20.8223 19.6375C20.84 19.6665 20.8621 19.6925 20.8878 19.7146C21.371 20.2445 22.0139 20.6022 22.7189 20.7335L25.8848 20.7379Z" fill="white" stroke="#0F3F62" stroke-width="0.4" stroke-miterlimit="10"/>
<path d="M30.9544 18.0057C27.5789 17.2818 24.0883 17.2818 20.7129 18.0057H30.9544Z" fill="white"/>
<path d="M30.9544 18.0057C27.5789 17.2818 24.0883 17.2818 20.7129 18.0057" stroke="#0F3F62" stroke-width="0.4" stroke-miterlimit="10"/>
<path d="M26.6984 15.8151C26.7144 15.6919 26.7039 15.5668 26.6677 15.448C26.6315 15.3292 26.5704 15.2195 26.4885 15.1262C26.4065 15.0329 26.3056 14.9581 26.1924 14.9069C26.0793 14.8557 25.9565 14.8292 25.8323 14.8292C25.7081 14.8292 25.5854 14.8557 25.4722 14.9069C25.3591 14.9581 25.2582 15.0329 25.1762 15.1262C25.0943 15.2195 25.0332 15.3292 24.9969 15.448C24.9607 15.5668 24.9503 15.6919 24.9663 15.8151" fill="white"/>
<path d="M26.6984 15.8151C26.7144 15.6919 26.7039 15.5668 26.6677 15.448C26.6315 15.3292 26.5704 15.2195 26.4885 15.1262C26.4065 15.0329 26.3056 14.9581 26.1924 14.9069C26.0793 14.8557 25.9565 14.8292 25.8323 14.8292C25.7081 14.8292 25.5854 14.8557 25.4722 14.9069C25.3591 14.9581 25.2582 15.0329 25.1762 15.1262C25.0943 15.2195 25.0332 15.3292 24.9969 15.448C24.9607 15.5668 24.9503 15.6919 24.9663 15.8151" stroke="#0F3F62" stroke-width="0.4" stroke-miterlimit="10"/>
<path d="M25.0302 38.7274V31.1671C25.0302 31.1671 24.3446 30.8673 23.9065 30.633C23.37 30.4671 22.802 30.4302 22.2486 30.5252C21.595 30.5369 21.6664 29.8091 21.6664 29.8091L21.7624 28.4612L23.4815 27.1177C23.4815 27.1177 23.5746 27.0348 23.627 27.0551C23.6794 27.0755 23.6969 27.1789 23.6969 27.1789L23.8308 28.0522C23.8308 28.0522 24.5237 29.8426 25.8366 29.8426C27.1495 29.8426 27.8424 28.0522 27.8424 28.0522L27.988 27.1323C27.988 27.1323 28.0025 27.0449 28.0403 27.0304C28.0782 27.0158 28.151 27.0784 28.151 27.0784L29.9195 28.4598L30.0155 29.8076C30.0155 29.8076 30.0796 30.5354 29.4333 30.5238C28.8799 30.4288 28.3119 30.4657 27.7754 30.6315C27.3387 30.8658 26.6517 31.1657 26.6517 31.1657V38.726" fill="white"/>
<path d="M25.0302 38.7274V31.1671C25.0302 31.1671 24.3446 30.8673 23.9065 30.633C23.37 30.4671 22.802 30.4302 22.2486 30.5252C21.595 30.5369 21.6664 29.8091 21.6664 29.8091L21.7624 28.4612L23.4815 27.1177C23.4815 27.1177 23.5746 27.0348 23.627 27.0551C23.6794 27.0755 23.6969 27.1789 23.6969 27.1789L23.8308 28.0522C23.8308 28.0522 24.5237 29.8426 25.8366 29.8426C27.1495 29.8426 27.8424 28.0522 27.8424 28.0522L27.988 27.1323C27.988 27.1323 28.0025 27.0449 28.0403 27.0304C28.0782 27.0158 28.151 27.0784 28.151 27.0784L29.9195 28.4598L30.0155 29.8076C30.0155 29.8076 30.0796 30.5354 29.4333 30.5238C28.8799 30.4288 28.3119 30.4657 27.7754 30.6315C27.3387 30.8658 26.6517 31.1657 26.6517 31.1657V38.726" stroke="#0F3F62" stroke-width="0.4" stroke-miterlimit="10"/>
<path d="M30.9606 28.6619C30.9606 28.6619 32.4657 28.9457 33.3492 29.1742C34.0906 29.4376 34.7498 29.8912 35.2607 30.4895C35.7716 31.0877 36.1163 31.8098 36.2604 32.5832C36.6102 34.5068 36.7348 36.4647 36.6316 38.4172V39.4914C36.6318 39.5376 36.6228 39.5833 36.6053 39.6261C36.5877 39.6688 36.562 39.7076 36.5294 39.7404C36.4968 39.7731 36.458 39.7991 36.4154 39.8168C36.3727 39.8345 36.327 39.8436 36.2808 39.8436H15.3859C15.3397 39.8436 15.294 39.8345 15.2514 39.8168C15.2087 39.7991 15.17 39.7731 15.1374 39.7404C15.1048 39.7076 15.079 39.6688 15.0614 39.6261C15.0439 39.5833 15.035 39.5376 15.0351 39.4914V38.4172C14.932 36.4647 15.0561 34.507 15.4049 32.5832C15.5492 31.8099 15.8941 31.088 16.4049 30.4897C16.9158 29.8915 17.5748 29.4379 18.316 29.1742C19.1996 28.9457 20.6668 28.6706 20.6668 28.6706" fill="white"/>
<path d="M30.9606 28.6619C30.9606 28.6619 32.4657 28.9457 33.3492 29.1742C34.0906 29.4376 34.7497 29.8912 35.2607 30.4895C35.7716 31.0877 36.1163 31.8098 36.2604 32.5832C36.6102 34.5068 36.7348 36.4647 36.6316 38.4172V39.4914C36.6318 39.5376 36.6228 39.5833 36.6053 39.6261C36.5877 39.6688 36.562 39.7076 36.5294 39.7404C36.4968 39.7731 36.458 39.7991 36.4154 39.8168C36.3727 39.8345 36.327 39.8436 36.2808 39.8436H15.3859C15.3397 39.8436 15.294 39.8345 15.2514 39.8168C15.2087 39.7991 15.17 39.7731 15.1374 39.7404C15.1048 39.7076 15.079 39.6688 15.0614 39.6261C15.0439 39.5833 15.035 39.5376 15.0351 39.4914V38.4172C14.932 36.4647 15.0561 34.507 15.4049 32.5832C15.5492 31.8099 15.8941 31.088 16.4049 30.4897C16.9158 29.8915 17.5748 29.4379 18.316 29.1742C19.1996 28.9457 20.6668 28.6706 20.6668 28.6706" stroke="#0F3F62" stroke-width="0.4" stroke-miterlimit="10"/>
<path d="M29.7828 36.0242C29.7828 36.0242 30.4466 35.6924 30.9269 35.5104C31.4073 35.3285 31.3228 34.7084 30.9808 34.1524C30.6387 33.5963 31.1147 33.3503 31.0885 33.0825C31.0739 32.937 30.6169 32.7186 30.6169 32.7186H28.9488C28.9488 32.7186 28.4917 32.9341 28.4772 33.0825C28.451 33.3503 28.9269 33.5963 28.5849 34.1524C28.2428 34.7084 28.1569 35.3285 28.6387 35.5104C29.1205 35.6924 29.7828 36.0242 29.7828 36.0242Z" fill="white" stroke="#0F3F62" stroke-width="0.4" stroke-miterlimit="10"/>
</g>
<defs>
<clipPath id="clip0_426_2081">
<rect width="50" height="50" fill="white" transform="translate(0 0.875)"/>
</clipPath>
</defs>
</svg>
