<svg width="21" height="21" viewBox="0 0 21 21" fill="none" xmlns="http://www.w3.org/2000/svg">
<g clip-path="url(#clip0_97_1319)">
<path d="M10.9959 18.5472H5.26447C4.76554 18.5472 4.28705 18.3534 3.93426 18.0084C3.58147 17.6634 3.38327 17.1955 3.38327 16.7076V5.16735C3.38656 4.68046 3.58581 4.21442 3.93789 3.87012C4.28998 3.52583 4.76656 3.33099 5.26447 3.32777H10.9959C11.3285 3.32777 11.6475 3.19856 11.8827 2.96857C12.1179 2.73858 12.25 2.42664 12.25 2.10139C12.25 1.77613 12.1179 1.46419 11.8827 1.2342C11.6475 1.00421 11.3285 0.875 10.9959 0.875H5.26447C4.10031 0.875 2.98383 1.32723 2.16065 2.1322C1.33746 2.93717 0.875 4.02895 0.875 5.16735V16.7076C0.875 17.8461 1.33746 18.9378 2.16065 19.7428C2.98383 20.5478 4.10031 21 5.26447 21H10.9959C11.3285 21 11.6475 20.8708 11.8827 20.6408C12.1179 20.4108 12.25 20.0989 12.25 19.7736C12.25 19.4484 12.1179 19.1364 11.8827 18.9064C11.6475 18.6764 11.3285 18.5472 10.9959 18.5472Z" fill="#DC3545"/>
<path d="M20.8992 11.4135C21.0336 11.1002 21.0336 10.7489 20.8992 10.4356C20.8312 10.2766 20.7306 10.1323 20.6034 10.0111L15.0379 4.68438C14.7807 4.4736 14.4499 4.36345 14.1116 4.37596C13.7732 4.38847 13.4523 4.5227 13.2129 4.75185C12.9735 4.98099 12.8332 5.28816 12.8201 5.61198C12.8071 5.93579 12.9222 6.2524 13.1424 6.49854L16.4091 9.59933H7.46933C7.11279 9.59933 6.77085 9.73489 6.51874 9.97618C6.26663 10.2175 6.125 10.5447 6.125 10.886C6.125 11.2272 6.26663 11.5545 6.51874 11.7958C6.77085 12.037 7.11279 12.1726 7.46933 12.1726H16.4091L13.1424 15.2991C12.8892 15.5397 12.7463 15.8667 12.7451 16.2081C12.7438 16.5495 12.8843 16.8774 13.1357 17.1197C13.387 17.362 13.7287 17.4988 14.0854 17.5C14.4421 17.5012 14.7847 17.3667 15.0379 17.1261L20.6437 11.8381C20.7521 11.7106 20.8384 11.5672 20.8992 11.4135Z" fill="#DC3545"/>
</g>
<defs>
<clipPath id="clip0_97_1319">
<rect width="21" height="21" fill="white"/>
</clipPath>
</defs>
</svg>
