<svg width="250" height="73" viewBox="0 0 250 73" fill="none" xmlns="http://www.w3.org/2000/svg">
<path d="M28.6858 28.7274L21.2975 11.1205L13.7151 28.7274H28.6858ZM29.5876 31.1H12.723L9.76773 37.9749C9.03931 39.6676 8.67163 40.9301 8.67163 41.7626C8.67163 42.4286 8.99075 43.0113 9.62205 43.5108C10.2533 44.0173 11.62 44.3433 13.7151 44.489V45.6753H0V44.489C1.81757 44.1699 2.99692 43.7467 3.53109 43.2333C4.62718 42.2066 5.83428 40.1185 7.1593 36.9689L22.4838 1.11694H23.6077L38.7796 37.3644C40.0005 40.278 41.1105 42.165 42.1025 43.0322C43.0946 43.8993 44.482 44.3849 46.2649 44.4959V45.6822H29.0743V44.4959C30.8086 44.4127 31.981 44.1213 32.5915 43.6288C33.202 43.1362 33.5072 42.5327 33.5072 41.832C33.5072 40.8885 33.0771 39.4039 32.2238 37.3644L29.5876 31.1Z" fill="#0F3F62"/>
<path d="M69.3931 15.3938V25.4182H68.3317C67.5201 22.2686 66.4725 20.125 65.1961 18.9942C63.9196 17.8565 62.2963 17.2946 60.3261 17.2946C58.8276 17.2946 57.6136 17.69 56.6979 18.4809C55.7752 19.2717 55.3173 20.1528 55.3173 21.117C55.3173 22.3172 55.6573 23.3439 56.3441 24.2041C57.01 25.0852 58.3559 26.0148 60.3885 26.9999L65.0781 29.2823C69.4278 31.4051 71.5992 34.2008 71.5992 37.6694C71.5992 40.3472 70.5863 42.5047 68.5607 44.1419C66.535 45.7792 64.2734 46.5978 61.769 46.5978C59.9723 46.5978 57.9119 46.2786 55.6018 45.6335C54.8942 45.4184 54.3184 45.3144 53.8675 45.3144C53.3749 45.3144 52.9864 45.5918 52.7089 46.1468H51.6614V35.6299H52.7228C53.3194 38.6268 54.471 40.8884 56.1637 42.4076C57.8564 43.9269 59.7503 44.69 61.8523 44.69C63.3299 44.69 64.537 44.2599 65.4666 43.3858C66.3962 42.5186 66.868 41.4711 66.868 40.2501C66.868 38.7725 66.3477 37.5307 65.3071 36.5248C64.2665 35.5189 62.1992 34.2424 59.0912 32.7023C55.9833 31.1623 53.9507 29.7679 52.9864 28.5261C52.0221 27.3051 51.5435 25.765 51.5435 23.8989C51.5435 21.4778 52.3759 19.4521 54.0339 17.8288C55.692 16.1985 57.8425 15.3868 60.4787 15.3868C61.6372 15.3868 63.0386 15.6366 64.6896 16.1291C65.7788 16.4482 66.5072 16.6147 66.8749 16.6147C67.2148 16.6147 67.4854 16.5384 67.6796 16.3927C67.8739 16.2401 68.0959 15.9141 68.3525 15.3938H69.3931Z" fill="#0F3F62"/>
<path d="M85.9394 0V21.5264C88.3189 18.9111 90.1989 17.2392 91.5933 16.4969C92.9877 15.7615 94.3752 15.3869 95.7696 15.3869C97.4415 15.3869 98.8775 15.8448 100.078 16.7675C101.278 17.6901 102.166 19.1331 102.742 21.1033C103.151 22.4769 103.352 24.9812 103.352 28.6233V39.0293C103.352 40.8954 103.505 42.1649 103.803 42.8517C104.018 43.3651 104.379 43.7744 104.892 44.0727C105.406 44.371 106.349 44.5236 107.723 44.5236V45.6821H93.2652V44.5236H93.9381C95.3117 44.5236 96.2621 44.3155 96.7963 43.8993C97.3305 43.483 97.7051 42.8656 97.9202 42.0539C97.9826 41.714 98.0173 40.7012 98.0173 39.0362V28.6302C98.0173 25.4183 97.8508 23.3093 97.5178 22.3034C97.1848 21.2975 96.6576 20.5414 95.9291 20.0349C95.2007 19.5285 94.3197 19.2788 93.293 19.2788C92.2454 19.2788 91.1493 19.5563 90.0186 20.1112C88.8808 20.6662 87.5211 21.7901 85.9394 23.4828V39.0362C85.9394 41.048 86.0504 42.3037 86.2724 42.7962C86.5013 43.2888 86.9176 43.6981 87.5281 44.0311C88.1385 44.364 89.193 44.5305 90.6915 44.5305V45.6891H76.1023V44.5305C77.4065 44.5305 78.4402 44.3294 79.1894 43.9201C79.6195 43.705 79.9594 43.2957 80.2161 42.6991C80.4728 42.1025 80.6046 40.8815 80.6046 39.0362V12.4039C80.6046 9.03931 80.5214 6.97199 80.3618 6.20195C80.2023 5.43191 79.9525 4.90467 79.6195 4.62718C79.2865 4.34969 78.8425 4.21094 78.2875 4.21094C77.8366 4.21094 77.1082 4.38437 76.1023 4.7243L75.6514 3.60046L84.4548 0H85.9394Z" fill="#0F3F62"/>
<path d="M120.251 21.6584C122.395 19.5148 123.658 18.2869 124.046 17.9608C125.01 17.1491 126.051 16.5178 127.161 16.0669C128.271 15.616 129.381 15.394 130.47 15.394C132.315 15.394 133.897 15.9282 135.222 17.0035C136.547 18.0718 137.442 19.6258 137.886 21.6584C140.092 19.0916 141.958 17.3989 143.477 16.6011C144.997 15.7964 146.565 15.394 148.167 15.394C149.728 15.394 151.115 15.7964 152.329 16.6011C153.537 17.4058 154.494 18.717 155.201 20.5345C155.673 21.7763 155.909 23.7257 155.909 26.3827V39.0433C155.909 40.8817 156.048 42.1512 156.325 42.831C156.54 43.3028 156.936 43.7051 157.512 44.0381C158.087 44.3711 159.031 44.5376 160.342 44.5376V45.6962H145.822V44.5376H146.433C147.695 44.5376 148.68 44.2948 149.388 43.8023C149.881 43.4623 150.234 42.9143 150.449 42.1651C150.533 41.8043 150.581 40.7637 150.581 39.0502V26.3827C150.581 23.9824 150.29 22.2897 149.714 21.3046C148.882 19.931 147.536 19.2511 145.697 19.2511C144.56 19.2511 143.422 19.5356 142.277 20.1044C141.133 20.6733 139.745 21.7278 138.115 23.2678L138.052 23.6216L138.115 25.0022V39.0433C138.115 41.0551 138.226 42.3108 138.455 42.8033C138.677 43.2958 139.1 43.7051 139.724 44.0381C140.349 44.3711 141.403 44.5376 142.909 44.5376V45.6962H128.035V44.5376C129.665 44.5376 130.782 44.3434 131.393 43.9618C132.003 43.5733 132.426 42.9975 132.662 42.2275C132.766 41.8668 132.822 40.8054 132.822 39.0502V26.3827C132.822 23.9824 132.468 22.2619 131.76 21.2075C130.817 19.8339 129.499 19.154 127.806 19.154C126.648 19.154 125.503 19.4662 124.372 20.0836C122.596 21.0271 121.223 22.0885 120.258 23.2609V39.0363C120.258 40.9649 120.39 42.2136 120.661 42.7964C120.931 43.3722 121.327 43.8092 121.847 44.1006C122.374 44.3919 123.436 44.5307 125.045 44.5307V45.6892H110.491V44.5307C111.836 44.5307 112.78 44.385 113.314 44.1006C113.848 43.8092 114.258 43.3513 114.535 42.72C114.813 42.0888 114.951 40.8609 114.951 39.0433V27.791C114.951 24.5582 114.854 22.4701 114.66 21.5266C114.507 20.819 114.271 20.3334 113.952 20.0628C113.633 19.7923 113.189 19.6604 112.634 19.6604C112.038 19.6604 111.316 19.82 110.484 20.1391L109.998 18.9806L118.864 15.3801H120.244V21.6584H120.251Z" fill="#0F3F62"/>
<path d="M180.682 39.3623V28.1447C177.449 29.4281 175.361 30.3369 174.418 30.878C172.725 31.8215 171.518 32.8066 170.789 33.8333C170.061 34.86 169.693 35.9838 169.693 37.2048C169.693 38.7449 170.151 40.0283 171.074 41.0411C171.996 42.0609 173.058 42.5673 174.258 42.5673C175.881 42.5743 178.025 41.499 180.682 39.3623ZM180.682 41.4504C177.664 43.7883 175.763 45.1341 174.993 45.5018C173.835 46.036 172.607 46.3065 171.296 46.3065C169.263 46.3065 167.584 45.6128 166.266 44.2184C164.948 42.824 164.289 40.9926 164.289 38.7241C164.289 37.2881 164.608 36.0463 165.253 34.9987C166.134 33.5419 167.661 32.1683 169.832 30.8849C172.003 29.6015 175.618 28.0337 180.675 26.1953V25.0368C180.675 22.1023 180.21 20.0905 179.274 18.9944C178.344 17.8983 176.984 17.3572 175.208 17.3572C173.863 17.3572 172.787 17.7179 171.996 18.4464C171.185 19.1748 170.775 20.0072 170.775 20.9507L170.838 22.8169C170.838 23.8019 170.588 24.5651 170.082 25.0992C169.575 25.6334 168.923 25.9039 168.105 25.9039C167.314 25.9039 166.662 25.6265 166.162 25.0715C165.656 24.5165 165.406 23.7534 165.406 22.7891C165.406 20.9507 166.349 19.258 168.236 17.711C170.123 16.1709 172.766 15.4009 176.173 15.4009C178.788 15.4009 180.925 15.8379 182.597 16.719C183.859 17.3849 184.789 18.4186 185.392 19.8338C185.781 20.7565 185.968 22.6434 185.968 25.4877V35.4774C185.968 38.287 186.024 40.0005 186.128 40.6318C186.232 41.2631 186.412 41.6863 186.655 41.9014C186.898 42.1164 187.189 42.2205 187.508 42.2205C187.848 42.2205 188.153 42.1442 188.41 41.9915C188.861 41.7141 189.728 40.9301 191.012 39.6467V41.4435C188.611 44.6555 186.322 46.2649 184.137 46.2649C183.089 46.2649 182.25 45.9042 181.632 45.1688C181.022 44.4473 180.703 43.2056 180.682 41.4504Z" fill="#0F3F62"/>
<path d="M203.104 21.6236C206.551 17.4682 209.84 15.3939 212.968 15.3939C214.578 15.3939 215.958 15.7963 217.11 16.601C218.269 17.4057 219.191 18.7308 219.871 20.5692C220.343 21.8526 220.579 23.8227 220.579 26.4797V39.0432C220.579 40.9093 220.724 42.1719 221.03 42.831C221.265 43.3651 221.647 43.7814 222.167 44.0866C222.695 44.3849 223.659 44.5375 225.074 44.5375V45.6961H210.527V44.5375H211.137C212.511 44.5375 213.468 44.3294 214.016 43.9132C214.564 43.4969 214.946 42.8795 215.154 42.0679C215.237 41.7487 215.286 40.7428 215.286 39.0501V26.9931C215.286 24.3153 214.939 22.3728 214.245 21.1658C213.551 19.9587 212.379 19.3482 210.728 19.3482C208.182 19.3482 205.643 20.7426 203.111 23.5244V39.0432C203.111 41.0342 203.228 42.269 203.464 42.7408C203.763 43.3651 204.179 43.8161 204.699 44.1074C205.226 44.3988 206.288 44.5375 207.897 44.5375V45.6961H193.343V44.5375H193.988C195.486 44.5375 196.499 44.156 197.027 43.3998C197.554 42.6367 197.817 41.1868 197.817 39.0501V28.1169C197.817 24.5858 197.734 22.4283 197.575 21.6583C197.415 20.8883 197.165 20.361 196.832 20.0835C196.499 19.806 196.055 19.6673 195.5 19.6673C194.904 19.6673 194.182 19.8269 193.35 20.1529L192.871 18.9944L201.737 15.3939H203.117V21.6236H203.104Z" fill="#0F3F62"/>
<path d="M247.759 15.3938V25.4182H246.698C245.886 22.2686 244.838 20.125 243.562 18.9942C242.286 17.8565 240.662 17.2946 238.692 17.2946C237.194 17.2946 235.98 17.69 235.064 18.4809C234.141 19.2717 233.683 20.1528 233.683 21.117C233.683 22.3172 234.023 23.3439 234.71 24.2041C235.376 25.0852 236.722 26.0148 238.754 26.9999L243.444 29.2823C247.794 31.4051 249.965 34.2008 249.965 37.6694C249.965 40.3472 248.952 42.5047 246.927 44.1419C244.901 45.7792 242.639 46.5978 240.135 46.5978C238.338 46.5978 236.278 46.2786 233.968 45.6335C233.26 45.4184 232.684 45.3144 232.233 45.3144C231.741 45.3144 231.352 45.5918 231.075 46.1468H230.013V35.6299H231.075C231.671 38.6268 232.823 40.8884 234.516 42.4076C236.208 43.9269 238.102 44.69 240.204 44.69C241.682 44.69 242.889 44.2599 243.819 43.3858C244.748 42.5186 245.213 41.4711 245.213 40.2501C245.213 38.7725 244.693 37.5307 243.659 36.5248C242.619 35.5189 240.551 34.2424 237.443 32.7023C234.335 31.1623 232.303 29.7679 231.338 28.5261C230.374 27.3051 229.896 25.765 229.896 23.8989C229.896 21.4778 230.728 19.4521 232.386 17.8288C234.044 16.1985 236.195 15.3868 238.831 15.3868C239.989 15.3868 241.391 15.6366 243.042 16.1291C244.131 16.4482 244.859 16.6147 245.227 16.6147C245.567 16.6147 245.837 16.5384 246.032 16.3927C246.226 16.2401 246.448 15.9141 246.705 15.3938H247.759Z" fill="#0F3F62"/>
<path d="M11.6127 51.6274V58.426H11.0786C10.9051 57.1218 10.5999 56.0812 10.1559 55.3111C9.71193 54.5411 9.08063 53.9237 8.26203 53.4728C7.44343 53.0218 6.59014 52.7929 5.71604 52.7929C4.724 52.7929 3.9054 53.0981 3.25329 53.7156C2.60119 54.333 2.28207 55.0267 2.28207 55.8106C2.28207 56.4072 2.49019 56.9553 2.89949 57.4478C3.48916 58.1693 4.89744 59.1405 7.12431 60.3476C8.93495 61.3327 10.1767 62.0889 10.8427 62.6161C11.5087 63.1434 12.0151 63.7608 12.3759 64.4753C12.7366 65.1899 12.91 65.9391 12.91 66.723C12.91 68.2076 12.3412 69.491 11.1965 70.5732C10.0588 71.6485 8.58809 72.1896 6.79132 72.1896C6.2294 72.1896 5.70216 72.148 5.20268 72.0578C4.90437 72.0092 4.29389 71.8358 3.36429 71.5306C2.43469 71.2253 1.84502 71.0727 1.59528 71.0727C1.35941 71.0727 1.16516 71.1421 1.03336 71.2877C0.894609 71.4334 0.790549 71.7317 0.721176 72.1827H0.193941V65.4465H0.721176C0.970919 66.8548 1.30391 67.9162 1.72709 68.6169C2.14332 69.3176 2.7885 69.9003 3.65566 70.3651C4.51588 70.8299 5.46629 71.0588 6.49995 71.0588C7.69317 71.0588 8.63665 70.7397 9.33038 70.1015C10.0241 69.4632 10.371 68.7071 10.371 67.8399C10.371 67.3543 10.2392 66.8687 9.97555 66.3761C9.71193 65.8836 9.30263 65.4257 8.75458 64.9956C8.37996 64.7042 7.36712 64.0868 5.70216 63.1503C4.04415 62.2068 2.85787 61.4576 2.1572 60.8957C1.45653 60.3338 0.922358 59.7163 0.561618 59.0434C0.200878 58.3705 0.0205078 57.6213 0.0205078 56.8096C0.0205078 55.4013 0.554682 54.1804 1.62303 53.1675C2.69137 52.1477 4.05108 51.6413 5.70216 51.6413C6.73582 51.6413 7.82498 51.898 8.98351 52.4114C9.51768 52.6542 9.8923 52.7721 10.1143 52.7721C10.364 52.7721 10.5652 52.6958 10.7248 52.5501C10.8843 52.3975 11.0092 52.0992 11.1063 51.6413H11.6127V51.6274Z" fill="#0F3F62"/>
<path d="M34.312 52.6888C32.5777 52.6888 31.1833 53.341 30.1288 54.6452C28.8176 56.2685 28.1655 58.648 28.1655 61.7767C28.1655 64.9817 28.8454 67.4514 30.1982 69.1857C31.2388 70.4969 32.6123 71.1559 34.3259 71.1559C36.1504 71.1559 37.6558 70.4344 38.842 68.9984C40.0283 67.5555 40.6249 65.287 40.6249 62.186C40.6249 58.8214 39.9728 56.317 38.6617 54.666C37.6141 53.3479 36.1642 52.6888 34.312 52.6888ZM34.5825 51.6274C37.1008 51.6274 39.286 52.5987 41.1314 54.5342C42.9767 56.4697 43.8993 58.8908 43.8993 61.7906C43.8993 64.7736 42.9698 67.2572 41.1106 69.2273C39.2514 71.1975 36.9967 72.1826 34.3536 72.1826C31.6827 72.1826 29.4351 71.2253 27.6175 69.2967C25.7999 67.3751 24.8911 64.8846 24.8911 61.8322C24.8911 58.7104 25.9386 56.1644 28.0407 54.1942C29.8652 52.4877 32.0435 51.6274 34.5825 51.6274Z" fill="#0F3F62"/>
<path d="M71.2326 66.2997L71.7043 66.4038L70.0463 71.7386H55.0132V71.2044H55.7416C56.5602 71.2044 57.1499 70.9338 57.5037 70.3927C57.7049 70.0806 57.802 69.366 57.802 68.2491V55.5608C57.802 54.3329 57.6702 53.5629 57.3996 53.2576C57.025 52.8344 56.47 52.6194 55.7416 52.6194H55.0132V52.0852H63.8027V52.6194C62.7691 52.6124 62.0476 52.7026 61.6314 52.9107C61.2151 53.1119 60.9307 53.3686 60.7781 53.6808C60.6255 53.993 60.5492 54.7283 60.5492 55.9007V68.2491C60.5492 69.0469 60.6255 69.6019 60.7781 69.9002C60.896 70.1014 61.0694 70.254 61.3123 70.3511C61.5481 70.4482 62.2974 70.4968 63.5461 70.4968H64.9613C66.4528 70.4968 67.4934 70.3858 68.0969 70.1638C68.7005 69.9418 69.2485 69.5464 69.7411 68.9845C70.2406 68.4087 70.7401 67.5138 71.2326 66.2997Z" fill="#0F3F62"/>
<path d="M90.7749 71.1975V71.7316H82.4571V71.1975H83.1439C83.9417 71.1975 84.5244 70.9616 84.8921 70.4899C85.121 70.1777 85.232 69.4354 85.232 68.2561V55.5608C85.232 54.5688 85.1696 53.9097 85.0447 53.5906C84.9476 53.3478 84.7534 53.1397 84.4551 52.9662C84.0319 52.7373 83.5948 52.6194 83.137 52.6194H82.4502V52.0852H90.768V52.6194H90.0673C89.2765 52.6194 88.7007 52.8552 88.333 53.327C88.0971 53.6392 87.9723 54.3815 87.9723 55.5608V68.2561C87.9723 69.2481 88.0347 69.9071 88.1596 70.2262C88.2567 70.4691 88.4579 70.6772 88.7631 70.8506C89.1724 71.0795 89.6094 71.1975 90.0673 71.1975H90.7749Z" fill="#0F3F62"/>
<path d="M118.531 51.6274L118.975 58.308H118.531C117.941 56.3101 117.095 54.8672 115.999 53.9861C114.903 53.1051 113.585 52.668 112.045 52.668C110.754 52.668 109.589 53.001 108.555 53.6601C107.515 54.3191 106.696 55.3805 106.099 56.8235C105.503 58.2734 105.205 60.0771 105.205 62.2276C105.205 64.0036 105.489 65.5506 106.051 66.8548C106.613 68.159 107.459 69.158 108.59 69.8586C109.721 70.5524 111.011 70.8992 112.461 70.8992C113.724 70.8992 114.834 70.6287 115.798 70.0806C116.762 69.5326 117.824 68.4504 118.975 66.827L119.419 67.1184C118.448 68.8666 117.31 70.15 116.013 70.9617C114.716 71.7733 113.176 72.1757 111.386 72.1757C108.167 72.1757 105.676 70.9686 103.907 68.5544C102.589 66.7577 101.93 64.6418 101.93 62.2068C101.93 60.2436 102.367 58.4468 103.234 56.8027C104.102 55.1585 105.302 53.889 106.821 52.9871C108.347 52.0853 110.005 51.6344 111.809 51.6344C113.21 51.6344 114.598 51.9812 115.964 52.675C116.367 52.89 116.651 52.9941 116.825 52.9941C117.081 52.9941 117.31 52.9039 117.497 52.7166C117.747 52.453 117.921 52.0922 118.025 51.6274H118.531Z" fill="#0F3F62"/>
<path d="M138.871 71.1975V71.7316H130.553V71.1975H131.24C132.037 71.1975 132.62 70.9616 132.988 70.4899C133.217 70.1777 133.328 69.4354 133.328 68.2561V55.5608C133.328 54.5688 133.265 53.9097 133.14 53.5906C133.043 53.3478 132.849 53.1397 132.551 52.9662C132.128 52.7373 131.691 52.6194 131.233 52.6194H130.546V52.0852H138.864V52.6194H138.163C137.372 52.6194 136.789 52.8552 136.429 53.327C136.193 53.6392 136.068 54.3815 136.068 55.5608V68.2561C136.068 69.2481 136.13 69.9071 136.255 70.2262C136.352 70.4691 136.554 70.6772 136.859 70.8506C137.268 71.0795 137.705 71.1975 138.163 71.1975H138.871Z" fill="#0F3F62"/>
<path d="M165.94 52.0782L166.155 56.6846H165.607C165.503 55.873 165.357 55.2902 165.177 54.9434C164.879 54.3814 164.49 53.9721 163.998 53.7016C163.505 53.438 162.86 53.3061 162.055 53.3061H159.322V68.3185C159.322 69.5256 159.454 70.2817 159.71 70.58C160.071 70.9824 160.633 71.1905 161.389 71.1905H162.062V71.7247H153.828V71.1905H154.514C155.333 71.1905 155.916 70.9408 156.262 70.4344C156.471 70.1291 156.575 69.4215 156.575 68.3185V53.3131H154.244C153.335 53.3131 152.69 53.3825 152.308 53.5143C151.816 53.6946 151.386 54.0484 151.032 54.5687C150.678 55.089 150.47 55.7966 150.4 56.6846H149.859L150.088 52.0782H165.94Z" fill="#0F3F62"/>
<path d="M186.191 52.6888C184.45 52.6888 183.062 53.341 182.008 54.6452C180.697 56.2685 180.044 58.648 180.044 61.7767C180.044 64.9817 180.724 67.4514 182.077 69.1857C183.118 70.4969 184.491 71.1559 186.205 71.1559C188.029 71.1559 189.535 70.4344 190.721 68.9984C191.907 67.5555 192.504 65.287 192.504 62.186C192.504 58.8214 191.852 56.317 190.541 54.666C189.493 53.3479 188.043 52.6888 186.191 52.6888ZM186.461 51.6274C188.98 51.6274 191.165 52.5987 193.01 54.5342C194.856 56.4697 195.778 58.8908 195.778 61.7906C195.778 64.7736 194.849 67.2572 192.989 69.2273C191.13 71.1975 188.876 72.1826 186.232 72.1826C183.562 72.1826 181.314 71.2253 179.496 69.2967C177.679 67.3751 176.77 64.8846 176.77 61.8322C176.77 58.7104 177.818 56.1644 179.92 54.1942C181.744 52.4877 183.922 51.6274 186.461 51.6274Z" fill="#0F3F62"/>
<path d="M212.33 61.6309C212.511 61.6309 212.67 61.6309 212.802 61.6379C212.934 61.6448 213.045 61.6448 213.128 61.6448C214.98 61.6448 216.375 61.2355 217.318 60.4238C218.255 59.6122 218.726 58.5785 218.726 57.3229C218.726 56.095 218.345 55.096 217.589 54.3329C216.833 53.5629 215.827 53.1813 214.578 53.1813C214.023 53.1813 213.274 53.2715 212.33 53.4588V61.6309ZM226.122 71.7316H220.939L214.363 62.5467C213.877 62.5675 213.482 62.5744 213.177 62.5744C213.052 62.5744 212.92 62.5744 212.774 62.5675C212.629 62.5605 212.483 62.5536 212.33 62.5467V68.2561C212.33 69.4909 212.462 70.2609 212.733 70.5592C213.093 70.9824 213.641 71.1975 214.363 71.1975H215.119V71.7316H206.801V71.1975H207.53C208.348 71.1975 208.938 70.9269 209.292 70.3858C209.493 70.0875 209.59 69.3799 209.59 68.2561V55.5608C209.59 54.326 209.458 53.5559 209.188 53.2576C208.813 52.8344 208.258 52.6194 207.53 52.6194H206.801V52.0852H213.877C215.938 52.0852 217.457 52.2378 218.442 52.5431C219.42 52.8483 220.253 53.4102 220.933 54.2219C221.612 55.0405 221.959 56.0117 221.959 57.1425C221.959 58.3496 221.571 59.3971 220.794 60.2851C220.017 61.1731 218.81 61.8044 217.179 62.172L221.189 67.8121C222.105 69.1093 222.896 69.9696 223.555 70.3927C224.214 70.8159 225.074 71.0865 226.135 71.2044V71.7316H226.122Z" fill="#0F3F62"/>
<path d="M248.689 51.6274V58.426H248.161C247.988 57.1218 247.683 56.0812 247.239 55.3111C246.795 54.5411 246.163 53.9237 245.345 53.4728C244.526 53.0218 243.673 52.7929 242.799 52.7929C241.807 52.7929 240.981 53.0981 240.336 53.7156C239.684 54.333 239.365 55.0267 239.365 55.8106C239.365 56.4072 239.566 56.9553 239.982 57.4478C240.572 58.1693 241.98 59.1405 244.207 60.3476C246.018 61.3327 247.26 62.0889 247.926 62.6161C248.592 63.1434 249.098 63.7608 249.459 64.4753C249.819 65.1899 250 65.9391 250 66.723C250 68.2076 249.431 69.491 248.286 70.5732C247.149 71.6485 245.678 72.1896 243.881 72.1896C243.319 72.1896 242.792 72.148 242.292 72.0578C241.994 72.0092 241.384 71.8358 240.454 71.5306C239.525 71.2253 238.935 71.0727 238.685 71.0727C238.449 71.0727 238.255 71.1421 238.123 71.2877C237.984 71.4334 237.88 71.7317 237.811 72.1827H237.284V65.4465H237.811C238.061 66.8548 238.394 67.9162 238.817 68.6169C239.233 69.3176 239.878 69.9003 240.745 70.3651C241.606 70.8299 242.556 71.0588 243.59 71.0588C244.783 71.0588 245.726 70.7397 246.42 70.1015C247.114 69.4632 247.461 68.7071 247.461 67.8399C247.461 67.3543 247.329 66.8687 247.065 66.3761C246.802 65.8836 246.392 65.4257 245.844 64.9956C245.47 64.7042 244.457 64.0868 242.792 63.1503C241.134 62.2068 239.948 61.4576 239.247 60.8957C238.546 60.3338 238.012 59.7163 237.651 59.0434C237.291 58.3705 237.11 57.6213 237.11 56.8096C237.11 55.4013 237.645 54.1804 238.713 53.1675C239.781 52.1477 241.141 51.6413 242.792 51.6413C243.826 51.6413 244.915 51.898 246.073 52.4114C246.607 52.6542 246.982 52.7721 247.204 52.7721C247.454 52.7721 247.655 52.6958 247.815 52.5501C247.974 52.3975 248.099 52.0992 248.196 51.6413H248.689V51.6274Z" fill="#0F3F62"/>
</svg>
