<svg width="210" height="112" viewBox="0 0 210 112" fill="none" xmlns="http://www.w3.org/2000/svg">
<mask id="mask0_31_2646" style="mask-type:alpha" maskUnits="userSpaceOnUse" x="0" y="0" width="210" height="112">
<rect width="210" height="112" rx="10" fill="#C4C4C4"/>
</mask>
<g mask="url(#mask0_31_2646)">
<path d="M228.702 73.8151C227.027 70.3493 223.139 64.4795 219.032 64.4996C208.165 64.5597 197.298 64.5196 186.431 64.5196V64.5396C177.638 64.5396 153.712 64.5396 153.113 64.5396C152.455 64.5396 151.837 64.4996 151.259 64.9603C148.268 67.4044 145.776 70.2692 144.201 73.8551C143.742 74.9169 144.081 75.2174 145.098 75.3777C148.727 75.9586 152.276 76.9803 155.805 78.002C156.942 78.3226 157.58 78.9236 157.919 80.0855C168.028 114.663 202.283 118.129 213.887 80.0855C214.286 78.8034 214.904 78.1022 216.28 77.8418C220.128 77.1005 223.937 76.179 227.785 75.4578C228.961 75.2374 229.32 75.0571 228.702 73.8151ZM191.057 103.464C175.944 106.489 166.552 94.6698 161.408 79.9653C186.491 88.3593 192.513 87.0972 210.019 79.8251C209.481 85.6548 201.346 101.401 191.057 103.464Z" fill="#ACC5F7"/>
<path d="M216.858 62.2359C220.348 62.2359 220.288 62.2359 220.368 58.6499C220.427 56.266 225.492 57.0272 156.523 57.0072C153.273 57.0072 153.313 57.0072 153.253 60.3127C153.193 63.0773 148.328 62.1958 216.858 62.2359Z" fill="#ACC5F7"/>
<path d="M186.87 43.8853C191.356 44.0055 195.165 40.3394 195.225 35.8119C195.384 24.7935 178.735 24.493 178.974 35.7117C178.894 39.9989 182.543 43.7651 186.87 43.8853ZM192.712 35.7318C192.672 38.897 190.22 41.2009 186.89 41.1808C183.76 41.1608 181.526 38.7768 181.566 35.4914C181.666 27.9989 192.812 28.3595 192.712 35.7318Z" fill="#ACC5F7"/>
<path d="M219.909 52.0391C215.562 20.186 204.098 11.9323 191.436 9.2278C190.36 9.00743 188.904 9.30793 189.024 7.40476C189.064 6.80376 186.81 7.04416 186.172 7.0642C185.096 7.08423 183.82 6.7036 183.879 8.58673C183.899 9.20777 183.182 9.0475 182.723 9.12763C165.376 12.5533 161.069 24.8538 158.098 33.2077C155.825 39.6384 154.39 46.2895 153.592 53.0608C153.213 56.2261 149.006 55.2244 217.237 55.2044C220.328 55.2244 220.348 55.1843 219.909 52.0391ZM198.335 47.2711C191.257 45.368 189.323 46.2494 186.531 52.3997C182.583 45.5483 182.583 45.5483 174.468 47.0307C178.616 38.3964 173.312 36.7937 170.56 35.3513C173.99 33.8688 179.652 33.8087 175.445 23.8521C179.034 25.3346 178.336 25.2144 180.948 25.6151C178.516 20.5867 178.915 16.0992 184.139 17.2211V15.6385H184.896V14.757H186.83V15.6184H187.628V17.2211C192.573 16.1794 193.251 20.2461 190.918 25.3146C191.297 25.2144 192.473 25.5951 193.231 25.4348C194.567 25.1543 195.863 24.7537 197.318 24.0525C196.939 26.6368 195.185 28.8605 196.222 31.4248C197.318 34.1493 200.05 34.3296 202.802 35.3112C198.854 37.1944 194.706 37.9356 198.335 47.2711Z" fill="#ACC5F7"/>
<path d="M187.309 23.2512C187.349 22.4699 187.748 22.1293 188.266 21.6085C188.784 22.1494 189.183 22.4699 189.223 23.2512C189.462 23.3714 189.602 23.5317 189.702 23.6719C191.197 19.8455 190.719 17.8222 186.791 19.4449V23.752C186.85 23.5918 187.01 23.3914 187.309 23.2512Z" fill="#ACC5F7"/>
<path d="M182.544 23.251C182.583 22.4697 182.982 22.1291 183.501 21.6082C184.019 22.1491 184.418 22.4697 184.458 23.251C184.737 23.3912 184.896 23.5915 184.976 23.7718V19.4446C181.108 17.842 180.55 19.7652 182.065 23.6717C182.165 23.5114 182.304 23.3712 182.544 23.251Z" fill="#ACC5F7"/>
<circle cx="-12" cy="-11" r="53" stroke="#2666E2" stroke-width="27"/>
</g>
</svg>
