<svg width="210" height="112" viewBox="0 0 210 112" fill="none" xmlns="http://www.w3.org/2000/svg">
<mask id="mask0_31_2681" style="mask-type:alpha" maskUnits="userSpaceOnUse" x="0" y="0" width="210" height="112">
<rect width="210" height="112" rx="10" fill="#C4C4C4"/>
</mask>
<g mask="url(#mask0_31_2681)">
<g opacity="0.6">
<path d="M167.4 72.6156H188.19C189.124 72.6156 189.881 73.373 189.881 74.3071V94.4976C189.881 95.4317 189.124 96.1891 188.19 96.1891C187.687 96.1891 187.235 95.9694 186.925 95.6208L166.224 75.5162C165.556 74.8667 165.541 73.7988 166.191 73.131C166.522 72.7911 166.961 72.6205 167.4 72.6205V72.6156L167.4 72.6156Z" fill="#FFFFFE"/>
<path fill-rule="evenodd" clip-rule="evenodd" d="M167.4 15.0001H226.6H228.291L228.291 16.6915V94.4971V96.1886H226.6H191.12C191.408 95.6909 191.573 95.1132 191.573 94.4971V74.3066C191.573 72.4389 190.058 70.9237 188.19 70.9237H165.709L165.708 16.6913V14.9999H167.4L167.4 15.0001ZM174.166 35.297H219.834V38.6799H174.166V35.297ZM174.166 28.5313H219.834V31.9143H174.166V28.5313ZM174.166 43.7542H219.834V47.1371H174.166V43.7542ZM174.166 50.5198H219.834V53.9027H174.166V50.5198ZM174.166 57.2853H219.834V60.6682H174.166V57.2853ZM174.166 64.0508H219.834V67.4338H174.166V64.0508Z" fill="#FFFFFE"/>
</g>
<circle cx="7" cy="-14" r="53" stroke="#DC9746" stroke-opacity="0.28" stroke-width="27"/>
</g>
</svg>
