<svg width="210" height="112" viewBox="0 0 210 112" fill="none" xmlns="http://www.w3.org/2000/svg">
<mask id="mask0_31_2672" style="mask-type:alpha" maskUnits="userSpaceOnUse" x="0" y="0" width="210" height="112">
<rect width="210" height="112" rx="10" fill="#DC3545"/>
</mask>
<g mask="url(#mask0_31_2672)">
<circle cx="1" cy="120" r="53" stroke="#EB3D30" stroke-width="27"/>
<path d="M225.253 89.7005H224.421V87.2049H221.926V49.7706H223.589V47.6909H225.669V43.1156H227L179.417 14L132 43.1156H134.163V47.6909H136.243V49.7706H137.906V87.2049H135.411V89.7005H133.747V93.028H132.083V97.1874H226.917V93.028H225.253V89.7005ZM215.271 49.7706V87.2049H212.775V89.7005H207.784V87.2049H205.288V49.7706H206.952V47.6909H213.607V49.7706H215.271ZM192.81 88.0368V86.373H191.146V55.5937H167.854V86.373H166.19V88.0368H164.526V89.7005H163.694V87.2049H161.199V49.7706H162.863V47.6909H196.969V49.7706H198.633V87.2049H196.137V89.7005H194.474V88.0368H192.81ZM144.561 87.2049V49.7706H146.225V47.6909H152.88V49.7706H154.544V87.2049H152.048V89.7005H147.057V87.2049H144.561Z" fill="#FBB4AE"/>
</g>
</svg>
