<svg width="210" height="112" viewBox="0 0 210 112" fill="none" xmlns="http://www.w3.org/2000/svg">
<mask id="mask0_31_2692" style="mask-type:alpha" maskUnits="userSpaceOnUse" x="0" y="0" width="210" height="112">
<rect width="210" height="112" rx="10" fill="#C4C4C4"/>
</mask>
<g mask="url(#mask0_31_2692)">
<g opacity="0.6">
<path d="M157.08 32.3067C157.801 11.9007 187.199 11.8949 187.922 32.3067C187.197 52.7185 157.8 52.7108 157.08 32.3067ZM146.182 56.747C149.656 56.7152 152.852 54.8439 154.581 51.8308C156.309 48.8168 156.309 45.1131 154.581 42.0991C152.852 39.0859 149.656 37.2147 146.182 37.1829C142.708 37.2147 139.512 39.086 137.783 42.0991C136.056 45.1131 136.056 48.8168 137.783 51.8308C139.512 54.8448 142.709 56.716 146.182 56.747ZM196.941 56.747C200.415 56.7152 203.612 54.8439 205.34 51.8308C207.067 48.8168 207.067 45.1131 205.34 42.0991C203.612 39.0859 200.415 37.2147 196.941 37.1829C193.467 37.2147 190.271 39.086 188.543 42.0991C186.815 45.1131 186.815 48.8168 188.543 51.8308C190.271 54.8448 193.467 56.716 196.941 56.747ZM197.88 58.4963C195.813 58.5038 193.768 58.9097 191.856 59.692C186.641 54.7152 179.71 51.9383 172.502 51.9383C165.294 51.9383 158.363 54.7152 153.148 59.6912C139.271 54.41 127.029 67.7139 127 84.18V84.1808C127 85.4295 128.012 86.442 129.261 86.442C130.511 86.442 131.523 85.4295 131.523 84.1808C131.622 71.5531 139.535 61.2642 149.65 63.3134C142.746 71.8751 139.056 82.5829 139.219 93.5792C139.219 94.179 139.458 94.7545 139.882 95.1786C140.306 95.6027 140.882 95.8412 141.481 95.8412H203.519C204.12 95.8412 204.695 95.6027 205.12 95.1786C205.544 94.7545 205.782 94.179 205.781 93.5792C205.945 82.582 202.255 71.8744 195.351 63.3114C205.464 61.2615 213.378 71.5521 213.477 84.1788C213.477 85.4283 214.489 86.4408 215.738 86.4408C216.988 86.4408 218 85.4283 218 84.1796C218 70.0169 208.973 58.4947 197.879 58.4947L197.88 58.4963Z" fill="white"/>
</g>
<circle cx="-5" cy="129" r="53" stroke="#8BBC52" stroke-width="27"/>
</g>
</svg>
