<svg width="210" height="112" viewBox="0 0 210 112" fill="none" xmlns="http://www.w3.org/2000/svg">
<mask id="mask0_31_2663" style="mask-type:alpha" maskUnits="userSpaceOnUse" x="0" y="0" width="210" height="112">
<rect width="210" height="112" rx="10" fill="#C4C4C4"/>
</mask>
<g mask="url(#mask0_31_2663)">
<path opacity="0.6" d="M223.325 53.4913L210.851 30.3766C211.219 30.0337 211.44 29.5429 211.44 28.9916C211.44 27.9427 210.591 27.0821 209.541 27.0821C208.866 27.0821 208.264 27.4519 207.93 27.9898L178.511 24.6954C178.117 23.8617 177.535 23.1289 176.827 22.5776V11H169.173V22.591C168.465 23.1423 167.896 23.8617 167.502 24.6954L138.083 27.9898C137.749 27.4519 137.147 27.0821 136.472 27.0821C135.423 27.0821 134.574 27.9427 134.574 28.9916C134.574 29.5429 134.801 30.027 135.162 30.3766L122.695 53.4913L122 53.5048C122.02 61.4719 128.544 68.0204 136.479 68.0204C144.413 68.0204 150.944 61.445 150.944 53.4577H150.089L137.776 30.39C137.883 30.2825 137.983 30.1749 138.063 30.0471L167.161 29.1395C167.515 30.3363 168.237 31.3985 169.18 32.165V86.7986H144.888V92.9639H141.506V102H204.508V92.9571H201.125V86.7919H176.827V32.1583C177.783 31.3918 178.498 30.3363 178.852 29.1328L207.95 30.0404C208.037 30.1682 208.131 30.2757 208.238 30.3833L195.925 53.451H195.069C195.069 61.4383 201.593 68.0136 209.535 68.0136C217.469 68.0136 223.993 61.4584 224 53.498L223.325 53.4913ZM148.966 53.4577H136.472L123.812 53.4913L136.038 30.8539C136.178 30.8876 136.325 30.9077 136.479 30.9077C136.626 30.9077 136.766 30.8876 136.907 30.8539L148.966 53.4577ZM173.01 31.1094C170.971 31.1094 169.327 29.4488 169.327 27.4049C169.327 25.3543 170.971 23.6936 173.01 23.6936C175.049 23.6936 176.693 25.3543 176.693 27.4049C176.693 29.4488 175.049 31.1094 173.01 31.1094ZM209.541 53.4577H197.048L209.113 30.8539C209.254 30.8876 209.394 30.9077 209.541 30.9077C209.688 30.9077 209.842 30.8876 209.982 30.8539L222.209 53.4913L209.541 53.4577Z" fill="white"/>
<circle cx="1" cy="121" r="53" stroke="#3FAA43" stroke-width="27"/>
</g>
</svg>
