<svg width="29" height="20" viewBox="0 0 29 20" fill="none" xmlns="http://www.w3.org/2000/svg">
<path d="M23.1584 5.46513H23.3987L21.1446 8.0758L24.3404 8.13163L28.4212 4.06939L24.3404 0.00714094L21.1276 0L23.3987 2.67332H23.1584C21.0834 2.67592 19.0383 3.2777 17.1905 4.42936C15.3424 5.58096 13.7441 7.24967 12.5257 9.29945C10.4867 12.7317 7.22466 14.7662 3.75009 14.7716H0.424805V17.5638H3.75037H3.7501C5.82483 17.5615 7.86946 16.9597 9.71673 15.8081C11.5643 14.6565 13.1617 12.9871 14.3791 10.9373C16.4203 7.50577 19.6833 5.47194 23.1581 5.46513L23.1584 5.46513Z" fill="#0F3F62"/>
<path d="M11.5206 8.60373C11.5474 8.56186 11.5743 8.52453 11.5969 8.48266C12.021 7.76597 12.4902 7.09082 13.0002 6.46338C10.5411 3.48402 7.21733 1.80975 3.75189 1.80518H0.422852V4.59732H3.75216L3.75189 4.597C6.6779 4.60284 9.47832 6.04725 11.5203 8.60374L11.5206 8.60373Z" fill="#0F3F62"/>
<path d="M21.143 11.2883L23.3971 13.9035H23.1606C20.5461 13.8996 18.0204 12.7448 16.048 10.6511C15.7838 11.0017 15.5354 11.3698 15.3042 11.7538C15.0871 12.1261 14.8543 12.4844 14.6104 12.8289C16.9918 15.3195 20.0239 16.6909 23.1606 16.6957H23.3971L21.1279 19.3667L24.3428 19.3573L28.4233 15.2997L24.3425 11.2374L21.143 11.2883Z" fill="#0F3F62"/>
</svg>
